<?xml version="1.0" encoding="UTF-8" standalone="no"?>
<!DOCTYPE svg PUBLIC "-//W3C//DTD SVG 1.1//EN" "http://www.w3.org/Graphics/SVG/1.1/DTD/svg11.dtd">
<svg width="100%" height="100%" viewBox="0 0 201 201" version="1.1" xmlns="http://www.w3.org/2000/svg" xmlns:xlink="http://www.w3.org/1999/xlink" xml:space="preserve" xmlns:serif="http://www.serif.com/" style="fill-rule:evenodd;clip-rule:evenodd;stroke-linejoin:round;stroke-miterlimit:2;">
    <g transform="matrix(1,0,0,1,-795.564,-1863.89)">
        <g transform="matrix(0.711241,0,0,1.91483,-447.232,61.3629)">
            <g transform="matrix(1.32884,0,0,0.493583,1457.99,4.49246)">
                <rect x="217.764" y="1898.07" width="211.73" height="211.714" style="fill:rgb(214,151,92);"/>
            </g>
        </g>
        <g transform="matrix(0.711241,0,0,1.91483,-766.409,113.292)">
            <g transform="matrix(1.09141,0,0,0.405393,2443.7,849.297)">
                <g transform="matrix(1,0,0,1,-400,-400)">
                    <g id="background">
                    </g>
                    <g id="Objects">
                        <g>
                            <clipPath id="_clip1">
                                <path d="M213.49,656.227C213.49,703.17 251.545,741.226 298.49,741.226C345.434,741.226 383.49,703.17 383.49,656.227C383.49,609.281 345.434,571.225 298.49,571.225C251.545,571.225 213.49,609.281 213.49,656.227Z" clip-rule="nonzero"/>
                            </clipPath>
                            <g clip-path="url(#_clip1)">
                                <g transform="matrix(1,0,0,1,298.648,635.469)">
                                    <path d="M0,83.273L-30.409,83.273C-30.409,83.273 -44.444,69.705 -37.427,49.587C-30.409,29.472 -24.327,21.519 -23.859,0L0,0L0,83.273Z" style="fill:rgb(181,121,38);fill-rule:nonzero;"/>
                                </g>
                                <g transform="matrix(1,0,0,1,297.862,635.469)">
                                    <path d="M0,83.273L30.409,83.273C30.409,83.273 44.444,69.705 37.426,49.587C30.409,29.472 24.327,21.519 23.859,0L0,0L0,83.273Z" style="fill:rgb(181,121,38);fill-rule:nonzero;"/>
                                </g>
                                <g transform="matrix(0,-1,-1,0,298.648,589.154)">
                                    <path d="M-37.202,-37.201C-16.655,-37.201 0,-20.545 0,0.001C0,20.547 -16.655,37.202 -37.202,37.202C-57.748,37.202 -74.403,20.547 -74.403,0.001C-74.403,-20.545 -57.748,-37.201 -37.202,-37.201" style="fill:rgb(181,121,38);fill-rule:nonzero;"/>
                                </g>
                                <g transform="matrix(1,0,0,1,311.094,714.082)">
                                    <path d="M0,-8.06L-12.604,27.295L-24.893,-8.06L-24.893,-35.355L0,-35.355L0,-8.06Z" style="fill:rgb(234,200,173);fill-rule:nonzero;"/>
                                </g>
                                <g transform="matrix(-0.956394,-0.292079,-0.292079,0.956394,256.021,679.622)">
                                    <path d="M-18.411,-85.656C-6.852,-82.126 9.421,-69.972 0.017,-39.18C-5.412,-21.402 -14.901,-15.136 -18.411,-12.686C-21.642,-10.431 -36.497,-4.492 -42.626,-6.364L-18.411,-85.656Z" style="fill:rgb(242,215,188);fill-rule:nonzero;"/>
                                </g>
                                <g transform="matrix(0.135851,0.990729,0.990729,-0.135851,266.123,642.678)">
                                    <path d="M6.441,-5.615C1.271,-5.445 -2.917,-2.395 -2.918,1.193C-2.918,4.783 1.273,7.554 6.441,7.384C11.609,7.213 15.797,4.164 15.799,0.575C15.797,-3.014 11.609,-5.786 6.441,-5.615" style="fill:rgb(242,215,188);fill-rule:nonzero;"/>
                                </g>
                                <g transform="matrix(-0.956394,0.292079,0.292079,0.956394,341.175,679.622)">
                                    <path d="M18.411,-85.656C6.852,-82.126 -9.421,-69.972 -0.017,-39.18C5.412,-21.402 14.901,-15.136 18.411,-12.686C21.642,-10.431 36.497,-4.492 42.626,-6.364L18.411,-85.656Z" style="fill:rgb(234,192,167);fill-rule:nonzero;"/>
                                </g>
                                <g transform="matrix(0.135862,-0.990728,-0.990728,-0.135862,331.171,642.678)">
                                    <path d="M-6.441,-5.615C-1.271,-5.445 2.917,-2.396 2.918,1.193C2.918,4.782 -1.273,7.554 -6.441,7.383C-11.609,7.213 -15.797,4.164 -15.799,0.574C-15.797,-3.014 -11.609,-5.786 -6.441,-5.615" style="fill:rgb(234,192,167);fill-rule:nonzero;"/>
                                </g>
                                <g transform="matrix(1,0,0,1,298.237,641.997)">
                                    <path d="M0,-46.716C-0.58,-46.79 -1.184,-46.841 -1.833,-46.847C-1.833,-46.847 -22.248,-45.319 -27.929,-18.731C-30.656,-16.686 -35.655,-8.732 -29.065,0.131C-28.157,-7.368 -25.409,-12.8 -20.658,-14.868C-12.225,-18.536 -8.753,-15.128 1.018,-22.626C6.725,-27.006 8.777,-35.812 7.515,-40.734C5.246,-46.847 -0.549,-46.618 0,-46.716" style="fill:rgb(181,121,38);fill-rule:nonzero;"/>
                                </g>
                                <g transform="matrix(1,0,0,1,304.461,639.038)">
                                    <path d="M0,-36.37C0,-36.37 -7.358,-8.919 24.769,2.575C32.467,-22.554 18.405,-38.945 0,-36.37" style="fill:rgb(181,121,38);fill-rule:nonzero;"/>
                                </g>
                                <g transform="matrix(-0.70693,0.707283,0.707283,0.70693,269.291,658.56)">
                                    <rect x="-1.417" y="-3.419" width="2.833" height="2.832" style="fill:rgb(255,242,0);"/>
                                </g>
                                <g transform="matrix(-0.70693,0.707283,0.707283,0.70693,331.264,658.559)">
                                    <rect x="-1.416" y="-3.419" width="2.833" height="2.832" style="fill:rgb(255,242,0);"/>
                                </g>
                                <g transform="matrix(1,0,0,1,298.49,691.037)">
                                    <path d="M0,50.34L0,16.34C0,16.34 -9.286,14.039 -11.333,6.516C-12.317,2.901 -12.289,0 -12.289,0C-12.289,0 -32.594,6.858 -37.127,13.942C-40.899,25.17 -41.934,50.34 -41.934,50.34L0,50.34Z" style="fill:rgb(18,46,93);fill-rule:nonzero;"/>
                                </g>
                                <g transform="matrix(1,0,0,1,298.49,691.037)">
                                    <path d="M0,50.34L0,16.34C0,16.34 9.286,14.039 11.333,6.516C12.317,2.901 12.289,0 12.289,0C12.289,0 32.594,6.858 37.127,13.942C40.899,25.17 41.934,50.34 41.934,50.34L0,50.34Z" style="fill:rgb(7,26,57);fill-rule:nonzero;"/>
                                </g>
                                <g transform="matrix(1,0,0,1,298.648,668.186)">
                                    <path d="M0,6.461C4.711,6.461 8.531,3.568 8.531,0L-8.531,0C-8.531,3.568 -4.711,6.461 0,6.461" style="fill:white;fill-rule:nonzero;"/>
                                </g>
                            </g>
                        </g>
                    </g>
                </g>
            </g>
        </g>
    </g>
</svg>
