<?xml version="1.0" encoding="UTF-8" standalone="no"?>
<!DOCTYPE svg PUBLIC "-//W3C//DTD SVG 1.1//EN" "http://www.w3.org/Graphics/SVG/1.1/DTD/svg11.dtd">
<svg width="100%" height="100%" viewBox="0 0 1374 950" version="1.1" xmlns="http://www.w3.org/2000/svg" xmlns:xlink="http://www.w3.org/1999/xlink" xml:space="preserve" xmlns:serif="http://www.serif.com/" style="fill-rule:evenodd;clip-rule:evenodd;stroke-linejoin:round;stroke-miterlimit:2;">
    <g transform="matrix(1,0,0,1,-17.4591,-2080.96)">
        <g transform="matrix(0.752534,0,0,1.47428,-1089.19,-0.639837)">
            <g transform="matrix(3.6512,0,0,1.97021,2383.36,1725.95)">
                <g transform="matrix(1,0,0,1,-250,-250)">
                    <g id="BACKGROUND">
                    </g>
                    <g id="OBJECTS">
                        <g transform="matrix(0.981699,0,0,0.981699,56.8819,251.657)">
                            <path d="M0,-2.479C-0.193,-6.201 0.042,-9.889 0.677,-13.472C0.842,-14.335 1.033,-15.187 1.245,-16.032C16.493,12.055 35.329,38.967 61.532,53.428C88.655,68.397 275.59,76.481 267.842,106.405C264.09,120.896 108.015,94.868 102.069,92.38C94.146,89.046 86.348,85.688 78.792,82.081C63.679,74.865 49.337,66.635 36.766,56.279C30.482,51.116 24.65,45.445 19.416,39.249C18.761,38.474 18.092,37.717 17.451,36.933L15.602,34.509L13.754,32.095C13.146,31.285 12.601,30.417 12.021,29.584C9.638,26.199 7.64,22.958 5.927,19.461C2.473,12.524 0.371,4.963 0,-2.479M-5.861,27.647C-3.759,32.078 -1.206,36.285 1.36,40.009C2.007,40.962 2.624,41.953 3.301,42.879L5.358,45.636L7.426,48.399C8.14,49.292 8.88,50.154 9.608,51.035C15.435,58.078 21.883,64.46 28.735,70.199C42.455,81.709 122.251,120.562 144.731,125.406C169.478,130.738 316.915,128.585 296.399,90.671C288.524,76.118 118.871,1.144 138.88,-25.385C146.024,-34.856 260.254,36.135 334.716,38.04C386.772,39.371 408.227,-26.436 407.504,-35.32C407.087,-40.442 406.273,-45.313 405.125,-49.961C405.607,-52.091 406.03,-54.238 406.383,-56.401C407.102,-60.578 407.486,-64.84 407.619,-69.092C407.779,-73.342 407.522,-77.621 406.981,-81.811C406.479,-85.994 405.455,-90.149 404.222,-93.979C403.562,-95.833 402.906,-97.679 402.253,-99.515C401.5,-101.297 400.69,-103.04 399.912,-104.782C396.596,-111.632 392.476,-117.692 387.911,-122.812C383.369,-127.994 378.282,-132.014 373.208,-135.429C372.568,-135.847 371.93,-136.263 371.294,-136.678C370.663,-137.104 370.024,-137.501 369.371,-137.847C368.075,-138.569 366.788,-139.286 365.509,-139.999C364.221,-140.674 362.915,-141.25 361.633,-141.871C360.99,-142.173 360.349,-142.475 359.711,-142.775C359.063,-143.036 358.418,-143.296 357.775,-143.554C352.655,-145.742 347.56,-147.19 342.632,-148.523C337.681,-149.694 332.875,-150.678 328.212,-151.281C318.894,-152.581 310.209,-152.966 302.247,-152.922C294.282,-152.87 287.035,-152.379 280.543,-151.725C274.051,-151.078 268.314,-150.233 263.363,-149.364C258.41,-148.517 254.245,-147.606 250.892,-146.808C244.19,-145.168 240.742,-143.879 240.818,-143.291C240.898,-142.67 244.498,-142.779 251.275,-143.267C254.667,-143.489 258.851,-143.832 263.793,-144.12C268.734,-144.43 274.431,-144.726 280.835,-144.836C287.238,-144.955 294.351,-144.922 302.097,-144.477C309.839,-144.025 318.224,-143.167 327.079,-141.467C331.514,-140.664 336.035,-139.502 340.657,-138.188C345.235,-136.719 349.952,-135.162 354.573,-132.956C355.156,-132.695 355.741,-132.433 356.328,-132.171C356.899,-131.873 357.473,-131.573 358.049,-131.273C359.194,-130.661 360.37,-130.093 361.512,-129.437C362.64,-128.753 363.776,-128.064 364.919,-127.371C365.499,-127.041 366.056,-126.665 366.602,-126.264L368.263,-125.093C372.659,-121.904 376.976,-118.265 380.693,-113.747C384.443,-109.278 387.734,-104.137 390.362,-98.375C390.969,-96.901 391.613,-95.442 392.213,-93.947C392.723,-92.399 393.237,-90.842 393.752,-89.277C394.666,-86.185 395.372,-83.103 395.697,-79.793C395.956,-77.369 396.105,-74.891 396.084,-72.372C369.039,-118.951 301.609,-134.884 261.28,-140.297C254.212,-141.246 247.201,-142.03 240.284,-142.743C240.652,-142.965 240.837,-143.149 240.818,-143.291C240.757,-143.767 238.515,-143.776 234.267,-143.354C232.047,-143.572 229.831,-143.789 227.64,-143.997C204.088,-146.241 125.234,-161.14 158.35,-135.495C180.053,-118.689 148.153,-100.237 129.352,-103.689C96.248,-109.766 19.45,-133.931 -4.055,-101.154C-16.563,-83.711 -16.581,-60.993 -9.574,-40.584C-8.686,-37.998 -7.738,-35.46 -6.736,-32.967C-7.033,-32.345 -7.338,-31.73 -7.62,-31.092C-9.543,-26.756 -11.151,-21.998 -12.155,-17.015C-13.121,-12.013 -13.516,-6.805 -13.309,-1.63C-12.911,8.753 -10.121,18.828 -5.861,27.647" style="fill:rgb(252,189,118);fill-rule:nonzero;"/>
                        </g>
                        <g transform="matrix(0.714229,0,0,0.744212,213.197,22.542)">
                            <g transform="matrix(1,0,0,1,293.486,189.154)">
                                <path d="M0,-0.014C0.229,0 0.461,0.01 0.694,0.021C-0.076,0.102 -0.835,0.105 -1.562,-0.119C-1.041,-0.077 -0.519,-0.046 0,-0.014" style="fill:rgb(193,133,71);fill-rule:nonzero;"/>
                            </g>
                            <g transform="matrix(1,0,0,1,306.525,195.626)">
                                <path d="M0,3.371C-0.167,3.294 -0.332,3.206 -0.488,3.112C-1.669,2.393 -2.409,1.255 -3.003,0C-1.784,0.918 -0.766,2.078 0,3.371" style="fill:rgb(193,133,71);fill-rule:nonzero;"/>
                            </g>
                            <g transform="matrix(1,0,0,1,276.952,171.391)">
                                <path d="M0,-2.93C-0.016,-3.188 -0.03,-3.458 0.074,-3.695C0.293,-4.2 0.932,-4.352 1.482,-4.375C2.842,-4.432 4.373,-3.967 4.981,-2.749C5.15,-2.412 5.233,-2 5.067,-1.661C4.985,-1.495 4.852,-1.361 4.72,-1.231C4.47,-0.983 4.22,-0.735 3.97,-0.488C3.422,0.055 2.841,0.617 2.1,0.827C-0.288,1.502 0.085,-1.526 0,-2.93" style="fill:rgb(193,133,71);fill-rule:nonzero;"/>
                            </g>
                            <g transform="matrix(1,0,0,1,303.952,161.722)">
                                <path d="M0,-2.93C-0.016,-3.188 -0.029,-3.458 0.074,-3.695C0.293,-4.2 0.932,-4.352 1.482,-4.375C2.842,-4.432 4.373,-3.967 4.981,-2.749C5.15,-2.412 5.233,-2 5.067,-1.661C4.986,-1.495 4.852,-1.361 4.72,-1.231C4.47,-0.983 4.22,-0.735 3.97,-0.488C3.422,0.055 2.841,0.617 2.1,0.827C-0.288,1.502 0.085,-1.526 0,-2.93" style="fill:rgb(193,133,71);fill-rule:nonzero;"/>
                            </g>
                            <g transform="matrix(1,0,0,1,276.902,151.813)">
                                <path d="M0,-3.898C0.067,-3.693 0.207,-3.521 0.34,-3.351C0.592,-3.03 0.833,-2.702 1.061,-2.365C1.387,-1.885 1.693,-1.253 1.394,-0.756C1.268,-0.548 1.047,-0.396 0.98,-0.162C0.933,0.006 0.974,0.185 1.029,0.351C1.349,1.311 2.145,2.1 3.109,2.41C3.28,2.465 3.462,2.506 3.64,2.477C4.142,2.395 4.394,1.724 4.152,1.276C4.09,1.163 4.005,1.061 3.964,0.938C3.849,0.601 4.101,0.248 4.382,0.031C4.664,-0.187 5.003,-0.356 5.184,-0.664C5.47,-1.153 5.239,-1.773 4.978,-2.277C4.717,-2.78 4.418,-3.343 4.587,-3.884C4.647,-4.076 4.764,-4.25 4.799,-4.448C4.86,-4.8 4.649,-5.145 4.393,-5.392C3.343,-6.404 -0.696,-6.018 0,-3.898" style="fill:rgb(193,133,71);fill-rule:nonzero;"/>
                            </g>
                            <g transform="matrix(1,0,0,1,295.702,169.515)">
                                <path d="M0,-2.263C-0.268,-2.013 -0.479,-1.658 -0.427,-1.295C-0.396,-1.081 -0.278,-0.891 -0.157,-0.712C0.069,-0.38 0.316,-0.063 0.584,0.236C0.926,0.619 1.386,1.002 1.893,0.915C2.467,0.816 2.762,0.182 2.929,-0.376C3.255,-1.462 3.853,-2.722 2.394,-3.075C1.608,-3.265 0.573,-2.799 0,-2.263" style="fill:rgb(193,133,71);fill-rule:nonzero;"/>
                            </g>
                            <g transform="matrix(1,0,0,1,309.445,183.284)">
                                <path d="M0,-3.712C-0.359,-3.788 -0.77,-3.757 -1.038,-3.505C-1.195,-3.358 -1.283,-3.151 -1.359,-2.949C-1.501,-2.574 -1.619,-2.189 -1.71,-1.798C-1.827,-1.298 -1.876,-0.702 -1.514,-0.337C-1.103,0.076 -0.415,-0.047 0.138,-0.231C1.215,-0.587 2.589,-0.822 2.04,-2.219C1.744,-2.971 0.768,-3.55 0,-3.712" style="fill:rgb(193,133,71);fill-rule:nonzero;"/>
                            </g>
                            <g transform="matrix(1,0,0,1,311.065,190.493)">
                                <path d="M0,-1.768C-0.093,-1.6 -0.178,-1.415 -0.162,-1.224C-0.134,-0.912 0.144,-0.693 0.349,-0.456C0.806,0.071 0.949,0.805 1.368,1.362C1.743,1.862 2.35,2.193 2.975,2.185C3.599,2.177 4.218,1.807 4.476,1.238C4.675,0.798 4.656,0.29 4.82,-0.164C4.92,-0.44 5.085,-0.688 5.184,-0.965C5.384,-1.525 5.286,-2.174 4.958,-2.671C4.632,-3.167 4.091,-3.509 3.509,-3.629C1.888,-3.961 0.825,-3.269 0,-1.768" style="fill:rgb(193,133,71);fill-rule:nonzero;"/>
                            </g>
                            <g transform="matrix(1,0,0,1,272.291,159.095)">
                                <path d="M0,2.459C0.045,2.614 0.104,2.774 0.227,2.878C0.429,3.047 0.724,3.012 0.986,3.03C1.57,3.072 2.091,3.423 2.67,3.505C3.189,3.579 3.746,3.415 4.112,3.04C4.478,2.664 4.625,2.077 4.441,1.587C4.298,1.208 3.985,0.917 3.813,0.55C3.708,0.327 3.659,0.082 3.554,-0.141C3.34,-0.592 2.896,-0.919 2.408,-1.02C1.918,-1.12 1.395,-1.002 0.978,-0.728C-0.181,0.037 -0.401,1.079 0,2.459" style="fill:rgb(193,133,71);fill-rule:nonzero;"/>
                            </g>
                            <g transform="matrix(1,0,0,1,322.906,192.47)">
                                <path d="M0,-1.114C-0.122,-1.341 -0.232,-1.547 -0.401,-1.746C-0.741,-2.147 -1.287,-2.424 -1.821,-2.4C-2.64,-2.364 -3.281,-1.704 -3.283,-0.877C-3.284,-0.653 -3.237,-0.432 -3.155,-0.225C-3.112,-0.121 -3.068,-0.018 -3.024,0.086C-3.012,0.138 -2.976,0.272 -2.973,0.292C-2.796,1.256 -1.43,1.31 -0.973,0.581C-0.907,0.593 -0.839,0.599 -0.766,0.596C-0.757,0.596 -0.749,0.597 -0.739,0.597C-0.319,0.581 0.11,0.312 0.187,-0.108C0.26,-0.509 0.189,-0.762 0,-1.114" style="fill:rgb(193,133,71);fill-rule:nonzero;"/>
                            </g>
                            <g transform="matrix(1,0,0,1,309.786,170.758)">
                                <path d="M0,-0.293C-0.032,-0.382 -0.065,-0.436 -0.122,-0.505C-0.125,-0.513 -0.126,-0.521 -0.129,-0.529C-0.276,-0.878 -0.639,-1.039 -1.004,-0.959C-1.084,-0.941 -1.163,-0.923 -1.242,-0.906L-1.244,-0.906C-1.279,-0.898 -1.313,-0.891 -1.348,-0.883C-1.346,-0.881 -1.345,-0.878 -1.344,-0.876C-1.406,-0.856 -1.47,-0.834 -1.535,-0.804C-1.91,-0.634 -2.029,-0.061 -1.816,0.27C-1.573,0.647 -1.137,0.746 -0.743,0.551L-0.735,0.551C-0.446,0.54 -0.153,0.451 -0.017,0.175C0.058,0.025 0.057,-0.138 0,-0.293" style="fill:rgb(193,133,71);fill-rule:nonzero;"/>
                            </g>
                            <g transform="matrix(1,0,0,1,294.565,180.003)">
                                <path d="M0,-0.331C-0.089,-0.562 -0.299,-0.649 -0.484,-0.599C-0.522,-0.616 -0.558,-0.636 -0.604,-0.642C-0.828,-0.672 -1.114,-0.485 -1.082,-0.228C-1.043,0.083 -0.854,0.341 -0.509,0.332C-0.177,0.322 0.132,0.011 0,-0.331" style="fill:rgb(193,133,71);fill-rule:nonzero;"/>
                            </g>
                            <g transform="matrix(1,0,0,1,289.805,168.217)">
                                <path d="M0,0.033C-0.031,-0.08 -0.087,-0.176 -0.142,-0.274C-0.144,-0.372 -0.145,-0.47 -0.146,-0.568C-0.147,-0.596 -0.157,-0.617 -0.162,-0.641C-0.12,-0.772 -0.167,-0.932 -0.324,-0.955L-0.343,-0.955C-0.423,-1.012 -0.565,-1.012 -0.645,-0.955C-0.719,-0.904 -0.77,-0.841 -0.811,-0.773C-0.959,-0.666 -1.077,-0.523 -1.078,-0.342C-1.078,-0.175 -0.936,-0.012 -0.862,0.137C-0.862,0.257 -0.863,0.376 -0.863,0.496C-0.863,0.639 -0.788,0.739 -0.684,0.798C-0.676,0.834 -0.669,0.872 -0.661,0.907C-0.628,1.045 -0.415,0.987 -0.449,0.849L-0.449,0.848C-0.432,0.847 -0.416,0.852 -0.399,0.849C-0.012,0.783 0.09,0.366 0,0.033" style="fill:rgb(193,133,71);fill-rule:nonzero;"/>
                            </g>
                            <g transform="matrix(1,0,0,1,292.99,160.19)">
                                <path d="M0,-1.28C-0.172,-1.365 -0.345,-1.316 -0.456,-1.16C-0.476,-1.132 -0.502,-1.11 -0.524,-1.083C-0.58,-1.062 -0.625,-1.018 -0.643,-0.948C-0.728,-0.863 -0.814,-0.779 -0.894,-0.686C-1.092,-0.453 -0.911,-0.12 -0.646,-0.136C-0.611,-0.069 -0.553,-0.011 -0.479,0.005C-0.115,0.085 0.201,-0.097 0.343,-0.434C0.479,-0.756 0.308,-1.127 0,-1.28" style="fill:rgb(193,133,71);fill-rule:nonzero;"/>
                            </g>
                            <g transform="matrix(1,0,0,1,325.081,166.566)">
                                <path d="M0,1.523C-0.14,0.782 -0.965,0.799 -1.472,0.429C-1.985,0.056 -2.055,-0.868 -2.821,-0.742C-3.374,-0.651 -3.753,-0.029 -3.619,0.506C-3.481,1.057 -2.907,1.417 -2.361,1.449C-2.33,1.474 -2.299,1.5 -2.266,1.524C-1.653,1.982 -0.958,2.391 -0.203,2.023C-0.018,1.933 0.035,1.707 0,1.523" style="fill:rgb(193,133,71);fill-rule:nonzero;"/>
                            </g>
                            <g transform="matrix(1,0,0,1,316.026,170.671)">
                                <path d="M0,-1.906C-0.447,-2.028 -0.895,-1.73 -1.018,-1.3C-1.027,-1.268 -1.032,-1.238 -1.035,-1.208C-1.192,-1.071 -1.301,-0.886 -1.382,-0.687C-1.445,-0.536 -1.34,-0.354 -1.215,-0.275C-0.591,0.122 0.397,-0.169 0.576,-0.93C0.672,-1.34 0.409,-1.795 0,-1.906" style="fill:rgb(193,133,71);fill-rule:nonzero;"/>
                            </g>
                            <g transform="matrix(1,0,0,1,300.277,148.013)">
                                <path d="M0,-1.652C-0.386,-1.945 -0.962,-1.975 -1.411,-1.771C-1.608,-1.797 -1.814,-1.713 -1.971,-1.54C-2.237,-1.247 -2.2,-0.786 -1.964,-0.49C-1.317,0.323 -0.234,-0.331 0.163,-1.032C0.293,-1.264 0.197,-1.502 0,-1.652" style="fill:rgb(193,133,71);fill-rule:nonzero;"/>
                            </g>
                            <g transform="matrix(1,0,0,1,309.746,185.548)">
                                <path d="M0,47.814C-0.435,48.757 -0.888,49.682 -1.368,50.589C-3.773,55.152 -6.594,59.518 -9.704,63.706C-11.96,66.75 -14.369,69.701 -16.874,72.567C-19.828,75.945 -22.96,79.253 -26.787,81.787C-32.554,85.613 -39.617,87.478 -46.672,88.312C-64.795,90.449 -83.75,85.918 -98.451,75.935C-113.148,65.951 -123.428,50.628 -126.53,34.071C-127.228,30.349 -127.579,26.554 -127.266,22.791C-126.98,19.336 -126.146,15.944 -125.314,12.566C-123.249,4.181 -121.164,-4.25 -117.581,-12.191C-114.002,-20.135 -108.807,-27.637 -101.462,-32.953C-98.211,-35.308 -94.602,-37.183 -90.775,-38.612C-85.507,-40.588 -79.832,-41.724 -74.137,-42.127C-73.474,-42.176 -72.815,-42.211 -72.151,-42.239C-62.409,-42.635 -52.694,-41.034 -43.306,-38.574C-43.504,-36.829 -43.726,-35.146 -44.297,-33.903C-45.227,-31.881 -46.355,-29.386 -45.974,-27.423C-45.822,-26.639 -45.429,-25.941 -44.686,-25.391C-43.847,-24.771 -42.666,-24.504 -42.094,-23.664C-41.595,-22.928 -41.721,-21.981 -41.926,-21.134C-42.586,-18.418 -43.851,-15.807 -44.004,-13.028C-44.16,-10.253 -42.772,-7.096 -39.88,-6.279C-37.966,-5.743 -35.984,-6.346 -33.995,-6.767C-33.469,-6.878 -32.939,-6.977 -32.413,-7.04C-30.48,-7.264 -28.502,-6.921 -26.753,-6.143C-24.847,-5.291 -23.208,-3.928 -22.202,-2.215C-20.971,-0.119 -20.312,2.684 -17.865,3.473C-17.849,3.476 -17.838,3.483 -17.822,3.486C-17.3,3.529 -16.778,3.56 -16.26,3.592C-16.031,3.606 -15.799,3.616 -15.566,3.627C-14.286,3.49 -12.974,3.136 -11.72,3.262C-11.507,3.283 -11.297,3.315 -11.087,3.368C-8.13,4.096 -7.512,7.359 -6.228,10.074L-6.224,10.078C-5.004,10.996 -3.987,12.156 -3.221,13.449C-2.321,13.866 -1.288,14.038 -0.274,14.111C1.677,14.255 3.636,14.076 5.595,13.817C6.667,25.577 4.688,37.617 0,47.814" style="fill:rgb(193,133,71);fill-rule:nonzero;"/>
                            </g>
                            <g transform="matrix(1,0,0,1,218.972,275.995)">
                                <path d="M0,-129.061C-3.827,-127.631 -7.436,-125.757 -10.688,-123.402C-18.032,-118.086 -23.227,-110.583 -26.806,-102.64C-30.389,-94.699 -32.474,-86.269 -34.54,-77.883C-35.371,-74.505 -36.206,-71.113 -36.491,-67.658C-36.804,-63.894 -36.453,-60.1 -35.755,-56.378C-32.653,-39.821 -22.374,-24.497 -7.676,-14.514C7.025,-4.53 25.979,0 44.103,-2.138C51.158,-2.972 58.221,-4.836 63.987,-8.662C67.814,-11.195 70.947,-14.504 73.901,-17.882C76.405,-20.748 78.814,-23.698 81.071,-26.744C78.963,-24.971 76.905,-23.103 75.289,-22.083C67.429,-17.117 59.2,-12.488 50.171,-9.671C41.138,-6.851 31.182,-5.939 22.046,-8.448C17.674,-9.65 13.592,-11.599 9.54,-13.533C3.225,-16.554 -3.164,-19.616 -8.477,-23.976C-15.09,-29.4 -19.694,-36.544 -24.187,-43.567C-26.25,-46.787 -28.354,-50.12 -28.902,-53.824C-29.276,-56.35 -28.898,-58.918 -28.491,-61.445C-26.616,-73.019 -24.077,-84.502 -20.883,-95.831C-19.622,-100.31 -18.25,-104.788 -16.146,-108.989C-12.322,-116.625 -6.334,-122.936 0,-129.061" style="fill:rgb(156,103,53);fill-rule:nonzero;"/>
                            </g>
                            <g transform="matrix(1,0,0,1,309.746,163.927)">
                                <path d="M0,69.435C-2.523,71.201 -5.226,72.68 -7.974,73.714C-12.639,75.462 -17.712,76.226 -22.24,78.251C-29.543,81.521 -35.26,87.976 -43.264,89.244C-50.861,90.449 -58.213,86.623 -64.799,82.947C-72.098,78.868 -79.394,74.793 -86.692,70.718C-91.244,68.177 -95.958,65.489 -98.79,61.344C-102.617,55.737 -102.263,48.603 -101.405,42.033C-100.799,37.407 -100.014,32.803 -99.042,28.233C-97.891,22.812 -96.374,17.223 -92.547,12.966C-89.311,9.364 -84.649,6.984 -81.585,3.256C-76.139,-3.378 -76.897,-12.604 -74.137,-20.506C-73.474,-20.555 -72.815,-20.59 -72.151,-20.618C-62.409,-21.014 -52.694,-19.413 -43.306,-16.953C-43.504,-15.208 -43.726,-13.525 -44.297,-12.282C-45.227,-10.26 -46.355,-7.765 -45.974,-5.802C-45.822,-5.018 -45.429,-4.32 -44.686,-3.77C-43.847,-3.15 -42.666,-2.883 -42.094,-2.043C-41.595,-1.307 -41.721,-0.36 -41.926,0.487C-42.586,3.203 -43.851,5.814 -44.004,8.593C-44.16,11.368 -42.772,14.525 -39.88,15.342C-37.966,15.878 -35.984,15.275 -33.995,14.854C-33.469,14.743 -32.939,14.644 -32.413,14.581C-30.48,14.357 -28.502,14.7 -26.753,15.478C-24.847,16.33 -23.208,17.693 -22.202,19.406C-20.971,21.502 -20.312,24.305 -17.865,25.094C-17.849,25.097 -17.838,25.104 -17.822,25.107C-17.3,25.15 -16.778,25.181 -16.26,25.213C-16.031,25.227 -15.799,25.237 -15.566,25.248C-14.286,25.111 -12.974,24.757 -11.72,24.883C-11.507,24.904 -11.297,24.936 -11.087,24.989C-8.13,25.717 -7.512,28.98 -6.228,31.695L-6.224,31.699C-5.004,32.617 -3.987,33.777 -3.221,35.07C-2.321,35.487 -1.288,35.659 -0.274,35.732C1.677,35.876 3.636,35.697 5.595,35.438C6.667,47.198 4.688,59.238 0,69.435" style="fill:rgb(224,169,102);fill-rule:nonzero;"/>
                            </g>
                            <g transform="matrix(1,0,0,1,251.978,168.545)">
                                <path d="M0,60.843C-3.27,59.62 -6.148,57.654 -8.843,55.559C-11.812,53.25 -14.766,50.509 -15.467,46.991C-15.78,45.428 -15.528,43.631 -14.24,42.569C-12.608,41.227 -10.055,41.577 -8.027,42.331C-5.999,43.08 -3.998,44.174 -1.814,44.075C-0.747,44.03 0.282,43.697 1.349,43.62C4.12,43.417 6.762,45.011 8.351,47.107C14.442,55.124 12.189,65.42 0,60.843M-0.175,-3.837C0.957,-5.326 2.581,-6.65 4.543,-6.854C7.608,-7.173 10.432,-4.04 9.525,-1.331C7.322,1.087 4.387,2.499 1.105,3.431C0.267,3.669 -0.774,3.806 -1.387,3.221C-1.658,2.965 -1.784,2.608 -1.868,2.257C-2.371,0.148 -1.517,-2.067 -0.175,-3.837M56.132,35.168C55.964,33.528 55.416,31.906 54.546,30.451C53.78,29.158 52.763,27.999 51.543,27.08L51.539,27.077C50.529,26.31 49.374,25.71 48.113,25.336C43.646,24.008 38.858,25.546 34.216,26.173C29.573,26.804 23.818,25.917 22,21.94C20.872,19.463 21.695,16.642 22.53,14.066C22.945,12.791 23.357,11.511 23.772,10.236C21.783,10.656 19.801,11.26 17.887,10.723C14.995,9.907 13.607,6.75 13.763,3.974C13.916,1.196 15.181,-1.415 15.841,-4.131C16.046,-4.979 16.172,-5.925 15.673,-6.661C15.101,-7.502 13.92,-7.768 13.081,-8.388C12.338,-8.939 11.945,-9.636 11.793,-10.421C7.783,-11.209 3.617,-11.875 -0.286,-10.799C-5.485,-9.366 -9.174,-5.109 -11.732,-0.704C-13.26,1.931 -14.518,4.717 -15.231,7.636C-16.252,11.817 -16.157,16.242 -17.838,20.24C-19.866,25.066 -24.271,28.756 -26.562,33.476C-30.862,42.341 -26.597,53.204 -18.875,59.82C-11.148,66.436 -0.69,69.593 9.59,71.797C11.831,72.274 14.16,72.718 16.413,72.298C20.715,71.489 23.563,67.841 27.123,65.472C31.906,62.287 38.031,61.428 43.386,59.14C48.768,56.845 51.345,53.397 52.637,48.326C53.731,44.027 56.616,39.874 56.132,35.168" style="fill:rgb(247,207,135);fill-rule:nonzero;"/>
                            </g>
                            <g transform="matrix(1,0,0,1,229.054,196.446)">
                                <path d="M0,-16.211C1.217,-15.572 1.915,-14.355 2.021,-13.092C2.157,-11.492 1.304,-10.732 0.533,-9.438C0.235,-8.939 0.151,-8.36 0.025,-7.803C-0.749,-4.363 -3.361,-1.281 -6.583,0.547C-6.911,0.733 -7.275,0.914 -7.658,0.877C-8.175,0.827 -8.545,0.405 -8.819,-0.001C-11.083,-3.35 -10.865,-7.739 -9.22,-11.38C-8.451,-13.083 -7.345,-14.723 -5.687,-15.762C-4.03,-16.8 -1.742,-17.125 0,-16.211" style="fill:rgb(247,207,135);fill-rule:nonzero;"/>
                            </g>
                            <g transform="matrix(1,0,0,1,291.881,179.419)">
                                <path d="M0,9.602C0.016,9.605 0.027,9.612 0.042,9.616C-1.959,9.455 -3.956,9.122 -5.583,8.074C-8.29,6.336 -9.189,3.084 -8.888,-0.014C-6.982,0.838 -5.343,2.201 -4.337,3.915C-3.106,6.01 -2.447,8.813 0,9.602" style="fill:rgb(247,207,135);fill-rule:nonzero;"/>
                            </g>
                            <g transform="matrix(1,0,0,1,255.926,252.307)">
                                <path d="M0,0.683C-0.227,1.485 -0.37,2.329 -0.241,3.154C-0.113,3.977 0.316,4.783 1.028,5.218C1.974,5.796 3.219,5.616 4.212,5.122C5.205,4.628 6.033,3.865 6.949,3.239C7.893,2.594 8.939,2.092 9.8,1.34C10.662,0.588 11.338,-0.505 11.205,-1.641C11.104,-2.491 10.575,-3.223 10.03,-3.883C9.702,-4.281 9.343,-4.682 8.867,-4.881C8.529,-5.022 8.157,-5.05 7.792,-5.056C3.801,-5.113 1.057,-3.052 0,0.683" style="fill:rgb(247,207,135);fill-rule:nonzero;"/>
                            </g>
                            <g transform="matrix(1,0,0,1,256.368,252.328)">
                                <path d="M0,0.628C-0.209,1.365 -0.34,2.142 -0.222,2.899C-0.104,3.656 0.291,4.397 0.945,4.796C1.814,5.328 2.958,5.161 3.872,4.708C4.784,4.255 5.545,3.552 6.387,2.978C7.255,2.385 8.217,1.923 9.008,1.232C9.8,0.541 10.421,-0.465 10.299,-1.508C10.207,-2.289 9.72,-2.962 9.219,-3.569C8.917,-3.935 8.588,-4.303 8.15,-4.486C7.84,-4.616 7.498,-4.642 7.162,-4.647C3.494,-4.7 0.971,-2.805 0,0.628" style="fill:rgb(110,73,54);fill-rule:nonzero;"/>
                            </g>
                            <g transform="matrix(1,0,0,1,257.826,250.23)">
                                <path d="M0,1.368C-0.148,1.69 -0.244,2.083 -0.064,2.389C0.126,2.712 0.564,2.813 0.93,2.729C1.295,2.644 1.608,2.418 1.919,2.209C2.933,1.529 4.041,0.99 5.203,0.615C5.687,0.458 6.262,0.249 6.379,-0.247C6.477,-0.658 6.177,-1.081 5.795,-1.263C5.414,-1.445 4.973,-1.442 4.55,-1.424C4.196,-1.409 3.842,-1.387 3.488,-1.358C1.826,-1.22 0.686,-0.122 0,1.368" style="fill:rgb(165,129,105);fill-rule:nonzero;"/>
                            </g>
                            <g transform="matrix(1,0,0,1,262.301,220.531)">
                                <path d="M0,5.426C0.023,6.628 0.157,7.885 0.826,8.884C1.487,9.87 2.578,10.469 3.637,11.006C8.4,13.423 14.116,15.363 18.955,13.102C22.052,11.655 24.261,8.575 24.911,5.219C25.561,1.863 24.723,-1.702 22.881,-4.582C22.203,-5.642 21.381,-6.63 20.346,-7.345C16.594,-9.937 8.423,-9.817 4.562,-7.381C0.587,-4.873 -0.083,1.122 0,5.426" style="fill:rgb(252,218,164);fill-rule:nonzero;"/>
                            </g>
                            <g transform="matrix(1,0,0,1,263.096,220.684)">
                                <path d="M0,5.083C0.022,6.208 0.148,7.387 0.774,8.322C1.394,9.246 2.415,9.807 3.407,10.31C7.869,12.573 13.222,14.39 17.755,12.272C20.655,10.917 22.725,8.033 23.333,4.89C23.942,1.746 23.157,-1.594 21.432,-4.291C20.797,-5.284 20.027,-6.209 19.058,-6.879C15.543,-9.307 7.89,-9.194 4.273,-6.913C0.551,-4.564 -0.078,1.051 0,5.083" style="fill:rgb(110,73,54);fill-rule:nonzero;"/>
                            </g>
                            <g transform="matrix(1,0,0,1,264.57,215.533)">
                                <path d="M0,9.858C0,10.118 0.015,10.41 0.207,10.587C0.307,10.679 0.442,10.725 0.575,10.757C2.26,11.175 3.885,10.038 5.352,9.11C8.035,7.415 11.145,6.15 13.026,3.594C13.546,2.887 13.963,2.068 14.004,1.191C14.045,0.315 13.643,-0.62 12.865,-1.025C12.307,-1.317 11.646,-1.308 11.017,-1.291C8.259,-1.221 4.371,-1.161 2.372,1.026C0.326,3.266 0.004,6.986 0,9.858" style="fill:rgb(165,129,105);fill-rule:nonzero;"/>
                            </g>
                            <g transform="matrix(1,0,0,1,232.666,242.24)">
                                <path d="M0,-1.077C-0.793,0.203 -1.566,1.555 -1.734,3.051C-1.774,3.413 -1.771,3.805 -1.566,4.106C-1.383,4.375 -1.071,4.522 -0.773,4.655C2.714,6.22 6.275,7.623 9.893,8.859C11.018,9.242 12.21,9.615 13.378,9.389C14.835,9.107 15.947,7.958 16.94,6.855C17.876,5.815 18.797,4.762 19.703,3.696C20.66,2.569 21.644,1.328 21.762,-0.145C21.945,-2.411 20.048,-4.282 18.159,-5.544C15.89,-7.06 9.888,-10.692 6.923,-9.838C4.125,-9.032 1.46,-3.433 0,-1.077" style="fill:rgb(247,207,135);fill-rule:nonzero;"/>
                            </g>
                            <g transform="matrix(1,0,0,1,233.698,242.214)">
                                <path d="M0,-0.966C-0.711,0.182 -1.405,1.395 -1.556,2.737C-1.592,3.061 -1.589,3.413 -1.405,3.682C-1.241,3.924 -0.961,4.055 -0.694,4.175C2.435,5.579 5.628,6.838 8.873,7.945C9.882,8.29 10.952,8.624 11.999,8.421C13.307,8.168 14.304,7.138 15.194,6.148C16.034,5.215 16.86,4.271 17.672,3.315C18.531,2.305 19.413,1.191 19.52,-0.131C19.683,-2.163 17.982,-3.841 16.287,-4.973C14.252,-6.333 8.868,-9.59 6.209,-8.824C3.699,-8.101 1.31,-3.08 0,-0.966" style="fill:rgb(110,73,54);fill-rule:nonzero;"/>
                            </g>
                            <g transform="matrix(1,0,0,1,239.785,240.585)">
                                <path d="M0,-3.303C-0.081,-3.115 -0.143,-2.91 -0.118,-2.706C-0.089,-2.48 0.043,-2.282 0.173,-2.094C0.876,-1.068 1.58,-0.043 2.283,0.982C2.495,1.291 2.713,1.607 3.023,1.816C3.413,2.08 3.901,2.146 4.371,2.176C5.536,2.25 6.712,2.148 7.846,1.874C8.117,1.809 8.397,1.727 8.596,1.534C8.776,1.359 8.869,1.115 8.951,0.878C9.211,0.135 9.437,-0.675 9.208,-1.428C8.938,-2.318 8.106,-2.906 7.298,-3.367C5.988,-4.117 4.596,-4.722 3.154,-5.17C1.919,-5.553 0.48,-4.424 0,-3.303" style="fill:rgb(165,129,105);fill-rule:nonzero;"/>
                            </g>
                            <g transform="matrix(1,0,0,1,232.434,179.697)">
                                <path d="M0,20.214C1.116,21.424 2.314,22.634 3.841,23.248C4.21,23.397 4.625,23.508 5.001,23.381C5.338,23.266 5.584,22.98 5.812,22.706C8.481,19.489 11.001,16.149 13.361,12.699C14.095,11.626 14.836,10.479 14.939,9.183C15.068,7.565 14.184,6.057 13.312,4.689C12.49,3.399 11.65,2.12 10.792,0.854C9.886,-0.484 8.866,-1.883 7.348,-2.439C5.015,-3.294 2.49,-1.844 0.606,-0.223C-1.655,1.724 -7.236,6.985 -7.204,10.357C-7.173,13.542 -2.056,17.986 0,20.214" style="fill:rgb(247,207,135);fill-rule:nonzero;"/>
                            </g>
                            <g transform="matrix(1,0,0,1,232.825,180.718)">
                                <path d="M0,18.131C1.001,19.216 2.076,20.301 3.445,20.853C3.776,20.986 4.148,21.086 4.485,20.971C4.788,20.869 5.009,20.612 5.213,20.366C7.607,17.481 9.867,14.485 11.984,11.391C12.642,10.428 13.307,9.399 13.4,8.236C13.515,6.785 12.722,5.433 11.94,4.205C11.203,3.048 10.45,1.902 9.68,0.766C8.867,-0.434 7.952,-1.689 6.591,-2.188C4.498,-2.955 2.233,-1.654 0.544,-0.2C-1.484,1.547 -6.491,6.265 -6.461,9.29C-6.434,12.146 -1.844,16.133 0,18.131" style="fill:rgb(110,73,54);fill-rule:nonzero;"/>
                            </g>
                            <g transform="matrix(1,0,0,1,230.427,182.44)">
                                <path d="M0,8.836C0.175,8.977 0.372,9.102 0.594,9.135C0.841,9.171 1.089,9.089 1.325,9.008C2.611,8.567 3.897,8.126 5.183,7.685C5.569,7.552 5.966,7.414 6.278,7.149C6.67,6.816 6.882,6.321 7.051,5.835C7.47,4.629 7.707,3.361 7.75,2.085C7.76,1.781 7.756,1.462 7.611,1.196C7.479,0.955 7.249,0.786 7.024,0.63C6.317,0.139 5.53,-0.335 4.67,-0.315C3.653,-0.291 2.791,0.414 2.068,1.129C0.895,2.29 -0.15,3.58 -1.044,4.967C-1.809,6.156 -1.04,8.002 0,8.836" style="fill:rgb(165,129,105);fill-rule:nonzero;"/>
                            </g>
                            <g transform="matrix(1,0,0,1,213.985,228.581)">
                                <path d="M0,0.683C0.227,1.485 0.369,2.329 0.241,3.153C0.113,3.977 -0.317,4.783 -1.028,5.218C-1.975,5.796 -3.219,5.615 -4.212,5.122C-5.206,4.629 -6.033,3.864 -6.949,3.239C-7.893,2.594 -8.939,2.092 -9.801,1.34C-10.662,0.588 -11.338,-0.506 -11.205,-1.641C-11.105,-2.491 -10.575,-3.223 -10.03,-3.883C-9.702,-4.281 -9.343,-4.682 -8.867,-4.881C-8.53,-5.022 -8.157,-5.05 -7.792,-5.056C-3.801,-5.113 -1.057,-3.052 0,0.683" style="fill:rgb(247,207,135);fill-rule:nonzero;"/>
                            </g>
                            <g transform="matrix(1,0,0,1,213.543,228.602)">
                                <path d="M0,0.628C0.208,1.365 0.339,2.141 0.222,2.899C0.104,3.656 -0.291,4.397 -0.945,4.796C-1.815,5.328 -2.959,5.162 -3.872,4.708C-4.785,4.255 -5.546,3.552 -6.387,2.977C-7.255,2.385 -8.217,1.923 -9.008,1.232C-9.8,0.541 -10.421,-0.465 -10.299,-1.508C-10.207,-2.289 -9.72,-2.962 -9.219,-3.569C-8.917,-3.935 -8.588,-4.303 -8.15,-4.486C-7.84,-4.616 -7.498,-4.642 -7.162,-4.647C-3.494,-4.7 -0.972,-2.805 0,0.628" style="fill:rgb(110,73,54);fill-rule:nonzero;"/>
                            </g>
                            <g transform="matrix(1,0,0,1,212.085,226.503)">
                                <path d="M0,1.368C0.148,1.69 0.243,2.083 0.063,2.389C-0.126,2.712 -0.565,2.813 -0.93,2.729C-1.295,2.645 -1.608,2.418 -1.919,2.209C-2.933,1.529 -4.042,0.991 -5.203,0.615C-5.688,0.458 -6.262,0.25 -6.38,-0.246C-6.478,-0.658 -6.177,-1.081 -5.795,-1.263C-5.414,-1.445 -4.973,-1.442 -4.55,-1.424C-4.196,-1.409 -3.842,-1.387 -3.489,-1.358C-1.827,-1.22 -0.686,-0.122 0,1.368" style="fill:rgb(165,129,105);fill-rule:nonzero;"/>
                            </g>
                            <g transform="matrix(1,0,0,1,211.401,203.298)">
                                <path d="M0,-8.096C-1.009,-7.575 -1.981,-6.932 -2.682,-6.038C-3.382,-5.145 -3.784,-3.968 -3.555,-2.856C-3.25,-1.377 -1.913,-0.307 -0.499,0.222C0.915,0.752 2.446,0.864 3.919,1.194C5.438,1.533 6.911,2.107 8.46,2.264C10.008,2.422 11.725,2.077 12.731,0.888C13.483,-0.001 13.719,-1.209 13.869,-2.365C13.959,-3.061 14.024,-3.79 13.78,-4.449C13.606,-4.916 13.288,-5.313 12.954,-5.681C9.3,-9.705 4.698,-10.518 0,-8.096" style="fill:rgb(247,207,135);fill-rule:nonzero;"/>
                            </g>
                            <g transform="matrix(1,0,0,1,211.846,203.05)">
                                <path d="M0,-7.441C-0.928,-6.962 -1.821,-6.371 -2.465,-5.55C-3.109,-4.729 -3.479,-3.647 -3.268,-2.625C-2.988,-1.265 -1.759,-0.281 -0.459,0.205C0.841,0.691 2.248,0.795 3.603,1.098C4.999,1.41 6.353,1.937 7.776,2.082C9.2,2.226 10.777,1.91 11.702,0.817C12.394,-0.001 12.61,-1.11 12.748,-2.172C12.831,-2.813 12.891,-3.483 12.666,-4.089C12.506,-4.518 12.214,-4.883 11.906,-5.222C8.548,-8.92 4.318,-9.667 0,-7.441" style="fill:rgb(110,73,54);fill-rule:nonzero;"/>
                            </g>
                            <g transform="matrix(1,0,0,1,214.553,200.282)">
                                <path d="M0,-4.485C-0.459,-4.333 -0.938,-4.062 -1.075,-3.599C-1.22,-3.11 -0.913,-2.58 -0.489,-2.295C-0.066,-2.009 0.451,-1.909 0.948,-1.794C2.567,-1.419 4.133,-0.816 5.587,-0.01C6.194,0.327 6.935,0.704 7.538,0.36C8.039,0.075 8.18,-0.618 8.006,-1.167C7.832,-1.716 7.418,-2.151 7.008,-2.555C6.664,-2.894 6.313,-3.225 5.955,-3.55C4.272,-5.075 2.12,-5.189 0,-4.485" style="fill:rgb(165,129,105);fill-rule:nonzero;"/>
                            </g>
                            <g transform="matrix(1,0,0,1,221.961,163.276)">
                                <path d="M0,8.049C-0.348,8.668 -0.685,9.455 -0.29,10.045C0.033,10.526 0.689,10.624 1.268,10.662C6.713,11.028 12.241,10.102 17.27,7.981C17.87,7.728 18.491,7.436 18.873,6.907C19.453,6.102 19.3,4.943 18.77,4.103C18.241,3.263 17.407,2.67 16.594,2.099C14.979,0.963 13.363,-0.173 11.748,-1.308C10.589,-2.123 9.228,-2.979 7.855,-2.629C4.65,-1.81 1.433,5.503 0,8.049" style="fill:rgb(247,207,135);fill-rule:nonzero;"/>
                            </g>
                            <g transform="matrix(1,0,0,1,223.291,163.845)">
                                <path d="M0,6.908C-0.298,7.439 -0.587,8.115 -0.248,8.621C0.029,9.034 0.592,9.117 1.088,9.151C5.762,9.465 10.506,8.669 14.823,6.849C15.338,6.632 15.871,6.381 16.198,5.928C16.697,5.237 16.565,4.242 16.11,3.521C15.656,2.8 14.94,2.291 14.243,1.801C12.856,0.826 11.47,-0.149 10.083,-1.124C9.088,-1.823 7.92,-2.557 6.742,-2.257C3.991,-1.554 1.229,4.722 0,6.908" style="fill:rgb(110,73,54);fill-rule:nonzero;"/>
                            </g>
                            <g transform="matrix(1,0,0,1,227.03,163.644)">
                                <path d="M0,3.077C-0.03,3.186 -0.055,3.308 0.001,3.406C0.047,3.484 0.136,3.526 0.221,3.558C1.017,3.857 1.9,3.66 2.747,3.581C4.396,3.429 6.063,3.745 7.714,3.591C7.835,3.579 7.968,3.559 8.049,3.468C8.108,3.399 8.126,3.305 8.135,3.215C8.203,2.525 7.864,1.843 7.375,1.352C6.415,0.389 4.15,-0.78 2.743,-0.392C1.397,-0.021 0.339,1.844 0,3.077" style="fill:rgb(165,129,105);fill-rule:nonzero;"/>
                            </g>
                            <g transform="matrix(1,0,0,1,301.426,222.73)">
                                <path d="M0,-11.465C-0.236,-11.89 -0.575,-12.368 -1.06,-12.349C-1.456,-12.334 -1.749,-11.986 -1.979,-11.663C-4.144,-8.618 -5.585,-5.063 -6.151,-1.37C-6.219,-0.929 -6.271,-0.462 -6.1,-0.05C-5.838,0.577 -5.108,0.903 -4.428,0.895C-3.749,0.888 -3.104,0.614 -2.479,0.345C-1.238,-0.19 0.004,-0.725 1.245,-1.26C2.136,-1.644 3.123,-2.131 3.411,-3.056C4.083,-5.219 0.971,-9.717 0,-11.465" style="fill:rgb(252,218,164);fill-rule:nonzero;"/>
                            </g>
                            <g transform="matrix(1,0,0,1,301.282,222.087)">
                                <path d="M0,-9.841C-0.203,-10.205 -0.493,-10.616 -0.91,-10.6C-1.25,-10.587 -1.5,-10.288 -1.698,-10.011C-3.557,-7.398 -4.794,-4.346 -5.28,-1.176C-5.338,-0.798 -5.383,-0.397 -5.235,-0.044C-5.011,0.495 -4.384,0.775 -3.801,0.768C-3.217,0.762 -2.664,0.527 -2.128,0.296C-1.062,-0.163 0.003,-0.623 1.069,-1.082C1.833,-1.411 2.681,-1.829 2.927,-2.624C3.504,-4.48 0.833,-8.341 0,-9.841" style="fill:rgb(110,73,54);fill-rule:nonzero;"/>
                            </g>
                            <g transform="matrix(1,0,0,1,298.801,214.193)">
                                <path d="M0,1.199C0.083,1.647 0.563,1.899 1.005,2.008C1.432,2.113 1.875,2.147 2.313,2.107C2.663,2.076 3.049,1.969 3.223,1.664C3.402,1.348 3.282,0.949 3.111,0.629C2.778,0.01 2.063,-0.948 1.262,-0.678C0.706,-0.49 -0.108,0.615 0,1.199" style="fill:rgb(165,129,105);fill-rule:nonzero;"/>
                            </g>
                            <g transform="matrix(1,0,0,1,301.81,217.654)">
                                <path d="M0,0.223C-0.025,0.353 -0.034,0.492 0.018,0.614C0.115,0.846 0.386,0.942 0.629,1.003C0.828,1.052 1.036,1.094 1.233,1.043C1.452,0.986 1.631,0.816 1.728,0.613C1.825,0.409 1.846,0.175 1.818,-0.049C1.756,-0.545 1.296,-0.871 0.794,-0.805C0.353,-0.746 0.075,-0.162 0,0.223" style="fill:rgb(165,129,105);fill-rule:nonzero;"/>
                            </g>
                        </g>
                    </g>
                    <g id="DESIGNED-BY-FREEPIK" serif:id="DESIGNED BY FREEPIK">
                    </g>
                </g>
            </g>
        </g>
    </g>
</svg>
