<?xml version="1.0" encoding="UTF-8" standalone="no"?>
<!DOCTYPE svg PUBLIC "-//W3C//DTD SVG 1.1//EN" "http://www.w3.org/Graphics/SVG/1.1/DTD/svg11.dtd">
<svg width="100%" height="100%" viewBox="0 0 201 201" version="1.1" xmlns="http://www.w3.org/2000/svg" xmlns:xlink="http://www.w3.org/1999/xlink" xml:space="preserve" xmlns:serif="http://www.serif.com/" style="fill-rule:evenodd;clip-rule:evenodd;stroke-miterlimit:10;">
    <g transform="matrix(1,0,0,1,-357.828,-1863.89)">
        <g transform="matrix(0.711241,0,0,1.91483,-884.968,61.3629)">
            <g transform="matrix(1.32884,0,0,0.493583,1457.99,4.49246)">
                <rect x="217.764" y="1898.07" width="211.73" height="211.714" style="fill:rgb(214,151,92);"/>
            </g>
        </g>
        <g transform="matrix(0.711241,0,0,1.91483,-884.968,61.3629)">
            <g transform="matrix(0.297204,0.0147213,-0.0396332,0.110393,1879.95,983.898)">
                <clipPath id="_clip1">
                    <rect x="-228.384" y="-267.975" width="478.147" height="546.614"/>
                </clipPath>
                <g clip-path="url(#_clip1)">
                    <g transform="matrix(1,0,0,1,-400,-400)">
                        <g id="OBJECTS">
                            <g transform="matrix(0.989095,0.147279,-0.147279,0.989095,499.754,668.848)">
                                <path d="M0,-512.405C-4.947,-511.665 -9.56,-515.074 -10.299,-520.026C-10.434,-520.918 -10.428,-521.798 -10.305,-522.644L-20.018,-521.191C-19.653,-520.418 -19.39,-519.579 -19.258,-518.687C-18.518,-513.736 -21.926,-509.128 -26.878,-508.387C-31.824,-507.647 -36.432,-511.056 -37.172,-516.007C-37.309,-516.9 -37.299,-517.781 -37.18,-518.626L-46.89,-517.174C-46.528,-516.401 -46.268,-515.561 -46.136,-514.669C-45.395,-509.717 -48.802,-505.108 -53.752,-504.369C-58.698,-503.63 -63.31,-507.039 -64.051,-511.989C-64.185,-512.882 -64.177,-513.762 -64.055,-514.607L-73.766,-513.156C-73.404,-512.383 -73.142,-511.544 -73.006,-510.651C-72.268,-505.698 -75.678,-501.092 -80.627,-500.351C-85.576,-499.612 -90.183,-503.021 -90.924,-507.972C-91.057,-508.865 -91.05,-509.745 -90.93,-510.59L-100.641,-509.138C-100.275,-508.365 -100.016,-507.527 -99.885,-506.633C-99.143,-501.682 -102.554,-497.074 -107.501,-496.334C-112.446,-495.594 -117.061,-499.003 -117.802,-503.954C-117.933,-504.847 -117.927,-505.727 -117.805,-506.572L-127.516,-505.121C-127.151,-504.348 -126.891,-503.508 -126.758,-502.615C-126.018,-497.663 -129.426,-493.056 -134.376,-492.317C-139.323,-491.576 -143.934,-494.986 -144.673,-499.937C-144.807,-500.83 -144.798,-501.71 -144.68,-502.554L-154.39,-501.103C-154.026,-500.329 -153.766,-499.49 -153.633,-498.596C-152.892,-493.646 -156.3,-489.039 -161.25,-488.299C-166.198,-487.559 -170.809,-490.967 -171.548,-495.92C-171.684,-496.812 -171.674,-497.693 -171.556,-498.537L-181.265,-497.085C-180.902,-496.312 -180.641,-495.473 -180.508,-494.579C-179.767,-489.628 -183.177,-485.02 -188.125,-484.28C-193.072,-483.541 -197.683,-486.95 -198.425,-491.901C-198.556,-492.795 -198.552,-493.674 -198.429,-494.519L-208.14,-493.067C-207.776,-492.295 -207.516,-491.455 -207.382,-490.563C-206.642,-485.611 -210.052,-481.003 -215,-480.264C-219.948,-479.524 -224.559,-482.931 -225.299,-487.884C-225.434,-488.776 -225.426,-489.655 -225.305,-490.502L-235.015,-489.05C-234.652,-488.277 -234.388,-487.438 -234.255,-486.545C-233.515,-481.593 -236.928,-476.984 -241.876,-476.245C-246.823,-475.507 -251.431,-478.914 -252.172,-483.865C-252.305,-484.759 -252.301,-485.638 -252.18,-486.484L-261.891,-485.032C-261.527,-484.259 -261.263,-483.42 -261.13,-482.527C-260.39,-477.575 -263.802,-472.967 -268.75,-472.227C-273.697,-471.488 -278.308,-474.897 -279.048,-479.848C-279.181,-480.741 -279.175,-481.621 -279.054,-482.466L-288.765,-481.014C-288.403,-480.242 -288.141,-479.402 -288.006,-478.509C-287.265,-473.557 -290.677,-468.949 -295.625,-468.21C-300.572,-467.469 -305.181,-470.879 -305.922,-475.83C-306.056,-476.723 -306.05,-477.603 -305.93,-478.449L-315.639,-476.996C-315.277,-476.223 -315.014,-475.384 -314.88,-474.491C-314.141,-469.54 -317.551,-464.931 -322.499,-464.192C-327.448,-463.452 -332.057,-466.861 -332.796,-471.812C-332.931,-472.706 -332.926,-473.584 -332.804,-474.43L-342.515,-472.978C-342.152,-472.206 -341.888,-471.366 -341.755,-470.473C-341.015,-465.522 -344.427,-460.913 -349.375,-460.175C-351.761,-459.818 -354.065,-460.433 -355.898,-461.714L-285.342,10.239L76.89,-43.913L6.246,-516.428C4.881,-514.335 2.665,-512.804 0,-512.405" style="fill:white;fill-rule:nonzero;"/>
                            </g>
                            <g transform="matrix(0.989095,0.147279,-0.147279,0.989095,63.2735,-54.5494)">
                                <g opacity="0.2">
                                    <g transform="matrix(0.989009,-0.147853,-0.147853,-0.989009,204.826,219.156)">
                                        <path d="M-1.842,24.776L333.308,24.776" style="fill:none;fill-rule:nonzero;stroke:rgb(92,203,196);stroke-width:1px;"/>
                                    </g>
                                    <g transform="matrix(0.989009,-0.147853,-0.147853,-0.989009,206.806,232.415)">
                                        <path d="M-1.842,24.776L333.308,24.776" style="fill:none;fill-rule:nonzero;stroke:rgb(92,203,196);stroke-width:1px;"/>
                                    </g>
                                    <g transform="matrix(0.989009,-0.147856,-0.147856,-0.989009,208.79,245.674)">
                                        <path d="M-1.842,24.777L333.309,24.777" style="fill:none;fill-rule:nonzero;stroke:rgb(92,203,196);stroke-width:1px;"/>
                                    </g>
                                    <g transform="matrix(0.98901,-0.14785,-0.14785,-0.98901,210.772,258.931)">
                                        <path d="M-1.842,24.776L333.309,24.776" style="fill:none;fill-rule:nonzero;stroke:rgb(92,203,196);stroke-width:1px;"/>
                                    </g>
                                    <g transform="matrix(0.989009,-0.147856,-0.147856,-0.989009,212.754,272.186)">
                                        <path d="M-1.842,24.777L333.308,24.777" style="fill:none;fill-rule:nonzero;stroke:rgb(92,203,196);stroke-width:1px;"/>
                                    </g>
                                    <g transform="matrix(0.989009,-0.147854,-0.147854,-0.989009,214.735,285.445)">
                                        <path d="M-1.842,24.776L333.307,24.777" style="fill:none;fill-rule:nonzero;stroke:rgb(92,203,196);stroke-width:1px;"/>
                                    </g>
                                    <g transform="matrix(0.989008,-0.147859,-0.147859,-0.989008,216.718,298.705)">
                                        <path d="M-1.842,24.777L333.308,24.778" style="fill:none;fill-rule:nonzero;stroke:rgb(92,203,196);stroke-width:1px;"/>
                                    </g>
                                    <g transform="matrix(0.989009,-0.147858,-0.147858,-0.989009,218.7,311.962)">
                                        <path d="M-1.842,24.777L333.305,24.777" style="fill:none;fill-rule:nonzero;stroke:rgb(92,203,196);stroke-width:1px;"/>
                                    </g>
                                    <g transform="matrix(0.989009,-0.147856,-0.147856,-0.989009,220.682,325.22)">
                                        <path d="M-1.842,24.777L333.309,24.777" style="fill:none;fill-rule:nonzero;stroke:rgb(92,203,196);stroke-width:1px;"/>
                                    </g>
                                    <g transform="matrix(0.989008,-0.147862,-0.147862,-0.989008,222.664,338.478)">
                                        <path d="M-1.842,24.778L333.308,24.778" style="fill:none;fill-rule:nonzero;stroke:rgb(92,203,196);stroke-width:1px;"/>
                                    </g>
                                    <g transform="matrix(0.989009,-0.147857,-0.147857,-0.989009,224.646,351.734)">
                                        <path d="M-1.842,24.777L333.307,24.777" style="fill:none;fill-rule:nonzero;stroke:rgb(92,203,196);stroke-width:1px;"/>
                                    </g>
                                    <g transform="matrix(0.989008,-0.14786,-0.14786,-0.989008,226.628,364.993)">
                                        <path d="M-1.842,24.778L333.306,24.778" style="fill:none;fill-rule:nonzero;stroke:rgb(92,203,196);stroke-width:1px;"/>
                                    </g>
                                    <g transform="matrix(0.989009,-0.147857,-0.147857,-0.989009,228.611,378.251)">
                                        <path d="M-1.842,24.777L333.306,24.777" style="fill:none;fill-rule:nonzero;stroke:rgb(92,203,196);stroke-width:1px;"/>
                                    </g>
                                    <g transform="matrix(0.989009,-0.147855,-0.147855,-0.989009,230.591,391.505)">
                                        <path d="M-1.842,24.777L333.31,24.777" style="fill:none;fill-rule:nonzero;stroke:rgb(92,203,196);stroke-width:1px;"/>
                                    </g>
                                    <g transform="matrix(0.989009,-0.147857,-0.147857,-0.989009,232.574,404.764)">
                                        <path d="M-1.842,24.777L333.306,24.777" style="fill:none;fill-rule:nonzero;stroke:rgb(92,203,196);stroke-width:1px;"/>
                                    </g>
                                    <g transform="matrix(0.989009,-0.147853,-0.147853,-0.989009,234.554,418.021)">
                                        <path d="M-1.842,24.776L333.308,24.776" style="fill:none;fill-rule:nonzero;stroke:rgb(92,203,196);stroke-width:1px;"/>
                                    </g>
                                    <g transform="matrix(0.989009,-0.147857,-0.147857,-0.989009,236.537,431.281)">
                                        <path d="M-1.842,24.777L333.307,24.777" style="fill:none;fill-rule:nonzero;stroke:rgb(92,203,196);stroke-width:1px;"/>
                                    </g>
                                    <g transform="matrix(0.989009,-0.147857,-0.147857,-0.989009,238.52,444.54)">
                                        <path d="M-1.842,24.777L333.307,24.777" style="fill:none;fill-rule:nonzero;stroke:rgb(92,203,196);stroke-width:1px;"/>
                                    </g>
                                    <g transform="matrix(0.989009,-0.147856,-0.147856,-0.989009,240.502,457.794)">
                                        <path d="M-1.842,24.777L333.308,24.777" style="fill:none;fill-rule:nonzero;stroke:rgb(92,203,196);stroke-width:1px;"/>
                                    </g>
                                    <g transform="matrix(0.989009,-0.147857,-0.147857,-0.989009,242.484,471.054)">
                                        <path d="M-1.842,24.777L333.306,24.777" style="fill:none;fill-rule:nonzero;stroke:rgb(92,203,196);stroke-width:1px;"/>
                                    </g>
                                    <g transform="matrix(0.989008,-0.147859,-0.147859,-0.989008,244.464,484.312)">
                                        <path d="M-1.842,24.777L333.308,24.778" style="fill:none;fill-rule:nonzero;stroke:rgb(92,203,196);stroke-width:1px;"/>
                                    </g>
                                    <g transform="matrix(0.989009,-0.147855,-0.147855,-0.989009,246.448,497.567)">
                                        <path d="M-1.842,24.776L333.305,24.776" style="fill:none;fill-rule:nonzero;stroke:rgb(92,203,196);stroke-width:1px;"/>
                                    </g>
                                    <g transform="matrix(0.98901,-0.147848,-0.147848,-0.98901,248.428,510.821)">
                                        <path d="M-1.842,24.775L333.307,24.775" style="fill:none;fill-rule:nonzero;stroke:rgb(92,203,196);stroke-width:1px;"/>
                                    </g>
                                    <g transform="matrix(0.989011,-0.147842,-0.147842,-0.989011,250.411,524.077)">
                                        <path d="M-1.841,24.774L333.306,24.775" style="fill:none;fill-rule:nonzero;stroke:rgb(92,203,196);stroke-width:1px;"/>
                                    </g>
                                    <g transform="matrix(0.989008,-0.147862,-0.147862,-0.989008,252.393,537.342)">
                                        <path d="M-1.842,24.778L333.308,24.778" style="fill:none;fill-rule:nonzero;stroke:rgb(92,203,196);stroke-width:1px;"/>
                                    </g>
                                    <g transform="matrix(0.98901,-0.147851,-0.147851,-0.98901,254.375,550.597)">
                                        <path d="M-1.842,24.776L333.307,24.776" style="fill:none;fill-rule:nonzero;stroke:rgb(92,203,196);stroke-width:1px;"/>
                                    </g>
                                </g>
                            </g>
                            <g transform="matrix(0.989095,0.147279,-0.147279,0.989095,63.2735,-54.5494)">
                                <g opacity="0.2">
                                    <g transform="matrix(0.989008,-0.147861,-0.147861,-0.989008,256.745,563.469)">
                                        <path d="M-1.842,24.778L333.311,24.778" style="fill:none;fill-rule:nonzero;stroke:rgb(92,203,196);stroke-width:1px;"/>
                                    </g>
                                    <g transform="matrix(0.989009,-0.147855,-0.147855,-0.989009,258.723,576.693)">
                                        <path d="M-1.842,24.777L333.311,24.777" style="fill:none;fill-rule:nonzero;stroke:rgb(92,203,196);stroke-width:1px;"/>
                                    </g>
                                    <g transform="matrix(0.989008,-0.14786,-0.14786,-0.989008,260.704,589.955)">
                                        <path d="M-1.842,24.778L333.312,24.778" style="fill:none;fill-rule:nonzero;stroke:rgb(92,203,196);stroke-width:1px;"/>
                                    </g>
                                    <g transform="matrix(0.989009,-0.147853,-0.147853,-0.989009,262.687,603.211)">
                                        <path d="M-1.842,24.776L333.309,24.776" style="fill:none;fill-rule:nonzero;stroke:rgb(92,203,196);stroke-width:1px;"/>
                                    </g>
                                    <g transform="matrix(0.98901,-0.147846,-0.147846,-0.98901,264.668,616.469)">
                                        <path d="M-1.842,24.775L333.312,24.775" style="fill:none;fill-rule:nonzero;stroke:rgb(92,203,196);stroke-width:1px;"/>
                                    </g>
                                    <g transform="matrix(0.989009,-0.147852,-0.147852,-0.989009,266.65,629.729)">
                                        <path d="M-1.842,24.776L333.311,24.776" style="fill:none;fill-rule:nonzero;stroke:rgb(92,203,196);stroke-width:1px;"/>
                                    </g>
                                    <g transform="matrix(0.989009,-0.147855,-0.147855,-0.989009,268.633,642.983)">
                                        <path d="M-1.842,24.777L333.31,24.777" style="fill:none;fill-rule:nonzero;stroke:rgb(92,203,196);stroke-width:1px;"/>
                                    </g>
                                    <g transform="matrix(0.98901,-0.14785,-0.14785,-0.98901,270.614,656.243)">
                                        <path d="M-1.842,24.776L333.309,24.776" style="fill:none;fill-rule:nonzero;stroke:rgb(92,203,196);stroke-width:1px;"/>
                                    </g>
                                    <g transform="matrix(0.989009,-0.147853,-0.147853,-0.989009,272.598,669.498)">
                                        <path d="M-1.842,24.776L333.308,24.776" style="fill:none;fill-rule:nonzero;stroke:rgb(92,203,196);stroke-width:1px;"/>
                                    </g>
                                    <g transform="matrix(0.989009,-0.147855,-0.147855,-0.989009,274.58,682.761)">
                                        <path d="M-1.842,24.777L333.31,24.777" style="fill:none;fill-rule:nonzero;stroke:rgb(92,203,196);stroke-width:1px;"/>
                                    </g>
                                </g>
                            </g>
                            <g transform="matrix(0.989095,0.147279,-0.147279,0.989095,63.2735,-54.5494)">
                                <g opacity="0.5">
                                    <g transform="matrix(1,0,0,1,171.763,267.806)">
                                        <path d="M0,-0.064L0.05,-0.007L0.059,0L0,-0.064Z" style="fill:rgb(255,255,231);fill-rule:nonzero;"/>
                                    </g>
                                    <g transform="matrix(1,0,0,1,165.546,260.621)">
                                        <path d="M0,-0.018L0.017,0.002L-0.005,-0.02L0,-0.018Z" style="fill:rgb(255,255,231);fill-rule:nonzero;"/>
                                    </g>
                                    <g transform="matrix(1,0,0,1,165.562,260.603)">
                                        <path d="M0,0.021L0.001,0.021L-0.016,0L0,0.021Z" style="fill:rgb(255,255,231);fill-rule:nonzero;"/>
                                    </g>
                                    <g transform="matrix(1,0,0,1,171.763,267.799)">
                                        <path d="M0,-0.057L0.05,0L0,-0.057Z" style="fill:rgb(255,255,231);fill-rule:nonzero;"/>
                                    </g>
                                    <g transform="matrix(0.655353,0.755322,0.755322,-0.655353,174.93,271.325)">
                                        <rect x="-0.014" y="-0.034" width="0.091" height="0.002" style="fill:rgb(255,255,231);"/>
                                    </g>
                                    <g transform="matrix(1,0,0,1,174.894,271.405)">
                                        <path d="M0,-0.07L0.061,0L0,-0.07Z" style="fill:rgb(255,255,231);fill-rule:nonzero;"/>
                                    </g>
                                    <g transform="matrix(1,0,0,1,152.977,246.25)">
                                        <path d="M0,-0.073L0.064,0L0,-0.073Z" style="fill:rgb(255,255,231);fill-rule:nonzero;"/>
                                    </g>
                                    <g transform="matrix(1,0,0,1,152.977,246.25)">
                                        <path d="M0,-0.073L0.064,0L0,-0.073Z" style="fill:rgb(255,255,231);fill-rule:nonzero;"/>
                                    </g>
                                    <g transform="matrix(1,0,0,1,178.085,274.943)">
                                        <path d="M0,0.055L-0.049,0L0,0.055Z" style="fill:rgb(255,255,231);fill-rule:nonzero;"/>
                                    </g>
                                    <g transform="matrix(1,0,0,1,265.69,148.417)">
                                        <path d="M0,-0.694L-0.821,0L0,-0.694Z" style="fill:rgb(255,255,231);fill-rule:nonzero;"/>
                                    </g>
                                    <g transform="matrix(1,0,0,1,183.415,244.31)">
                                        <path d="M0,33.917L-1.481,33.661L-1.542,33.59L-1.595,32.089L-1.646,30.585L-3.131,30.326L-4.612,30.064L-4.67,29.996L-4.727,28.497L-4.782,26.988L-6.26,26.729L-7.744,26.472L-7.805,26.403L-7.856,24.897L-7.912,23.394L-9.393,23.136L-10.874,22.876L-10.936,22.808L-10.989,21.305L-11.04,19.801L-12.522,19.544L-14.002,19.287L-14.065,19.214L-14.122,17.709L-14.172,16.209L-15.655,15.947L-17.136,15.689L-17.194,15.618L-17.252,14.116L-17.302,12.611L-18.785,12.351L-20.271,12.094L-20.328,12.025L-20.381,10.522L-20.436,9.018L-21.917,8.758L-23.398,8.5L-23.459,8.43L-23.514,6.927L-23.568,5.428L-25.045,5.166L-26.528,4.908L-26.592,4.833L-26.641,3.337L-26.699,1.831L-28.176,1.572L-29.659,1.314L-29.722,1.244L-29.775,-0.263L-29.794,-0.865L-30.51,-0.261L-30.49,0.362L-30.438,1.868L-30.374,1.94L-28.89,2.197L-27.409,2.448L-27.359,3.959L-27.307,5.458L-27.246,5.528L-25.764,5.788L-24.279,6.043L-24.228,7.551L-24.174,9.053L-24.111,9.124L-22.632,9.379L-21.143,9.636L-21.095,11.146L-21.044,12.648L-20.985,12.717L-19.5,12.975L-18.012,13.232L-17.964,14.74L-17.911,16.242L-17.874,16.291L-17.852,16.313L-16.37,16.569L-14.881,16.829L-14.835,18.332L-14.779,19.838L-14.72,19.906L-13.239,20.165L-11.752,20.421L-11.7,21.929L-11.652,23.432L-11.593,23.497L-11.593,23.5L-8.621,24.014L-8.572,25.519L-8.521,27.025L-8.459,27.095L-6.975,27.354L-5.491,27.604L-5.439,29.113L-5.389,30.621L-5.379,30.634L-5.33,30.688L-3.845,30.95L-2.357,31.204L-2.309,32.71L-2.259,34.21L-2.249,34.223L-2.197,34.28L-0.712,34.539L0.707,34.782L1.434,34.167L0,33.917Z" style="fill:rgb(255,255,231);fill-rule:nonzero;"/>
                                    </g>
                                    <g transform="matrix(1,0,0,1,181.156,278.532)">
                                        <path d="M0,-0.013L0.003,-0.006L0.01,0L0,-0.013Z" style="fill:rgb(255,255,231);fill-rule:nonzero;"/>
                                    </g>
                                    <g transform="matrix(1,0,0,1,184.288,282.187)">
                                        <path d="M0,-0.071L0.048,-0.013L0.062,0L0,-0.071Z" style="fill:rgb(255,255,231);fill-rule:nonzero;"/>
                                    </g>
                                    <g transform="matrix(1,0,0,1,181.157,278.524)">
                                        <path d="M0,-0.001L0.002,0.003L-0.001,-0.004L0,-0.001Z" style="fill:rgb(255,255,231);fill-rule:nonzero;"/>
                                    </g>
                                    <g transform="matrix(1,0,0,1,153.618,148.432)">
                                        <path d="M0,94.998L0.003,95.013L111.251,-0.015L0,94.998Z" style="fill:rgb(255,255,231);fill-rule:nonzero;"/>
                                    </g>
                                    <g transform="matrix(1,0,0,1,280.579,162.537)">
                                        <path d="M0,0.004L-0.036,-0.033L-0.036,-0.036L0.026,0.04L0.028,0.04L0,0.004Z" style="fill:rgb(255,255,231);fill-rule:nonzero;"/>
                                    </g>
                                    <g transform="matrix(1,0,0,1,277.413,158.946)">
                                        <path d="M0,-0.038L-0.001,-0.038L0.031,0L0,-0.038Z" style="fill:rgb(255,255,231);fill-rule:nonzero;"/>
                                    </g>
                                    <g transform="matrix(-0.613941,-0.789352,-0.789352,0.613941,283.697,166.152)">
                                        <path d="M0.035,-0.016L0.058,-0.016L0.059,-0.014L-0.032,-0.019L0.035,-0.016Z" style="fill:rgb(255,255,231);fill-rule:nonzero;"/>
                                    </g>
                                    <g transform="matrix(1,0,0,1,286.807,169.697)">
                                        <path d="M0,-0.007L0.005,0L0,-0.007Z" style="fill:rgb(255,255,231);fill-rule:nonzero;"/>
                                    </g>
                                    <g transform="matrix(1,0,0,1,277.444,158.942)">
                                        <path d="M0,0.004L-0.033,-0.034L0.028,0.038L0,0.004Z" style="fill:rgb(255,255,231);fill-rule:nonzero;"/>
                                    </g>
                                    <g transform="matrix(1,0,0,1,280.606,162.541)">
                                        <path d="M0,0.036L-0.028,0L0,0.036Z" style="fill:rgb(255,255,231);fill-rule:nonzero;"/>
                                    </g>
                                    <g transform="matrix(1,0,0,1,283.675,166.114)">
                                        <path d="M0,-0.018L0.014,0L0,-0.018Z" style="fill:rgb(255,255,231);fill-rule:nonzero;"/>
                                    </g>
                                    <g transform="matrix(1,0,0,1,268.017,182.629)">
                                        <path d="M0,-34.501L0.007,-34.501L0.062,-34.43L0.109,-32.932L0.165,-31.419L1.65,-31.162L3.131,-30.904L3.16,-30.873L3.195,-30.837L3.243,-29.333L3.295,-27.826L4.783,-27.568L6.266,-27.311L6.291,-27.281L6.324,-27.24L6.371,-25.741L6.424,-24.23L7.914,-23.975L9.395,-23.721L9.396,-23.721L9.428,-23.683L9.456,-23.649L9.504,-22.149L9.558,-20.639L12.526,-20.127L12.526,-20.125L12.562,-20.088L12.59,-20.052L12.588,-20.052L12.637,-18.553L12.69,-17.047L14.172,-16.789L15.655,-16.532L15.658,-16.533L15.672,-16.515L15.716,-16.464L15.769,-14.957L15.818,-13.45L17.301,-13.2L18.79,-12.939L18.82,-12.897L18.848,-12.868L18.9,-11.36L18.95,-9.857L20.433,-9.602L21.92,-9.342L21.921,-9.342L21.981,-9.276L21.982,-9.271L22.03,-7.768L22.083,-6.261L23.565,-6.006L25.049,-5.745L25.058,-5.741L25.109,-5.682L25.109,-5.679L25.162,-4.175L25.212,-2.668L26.697,-2.414L28.183,-2.154L28.24,-2.086L28.292,-0.583L28.327,0.41L28.333,0.4L28.296,-0.583L28.243,-2.09L28.183,-2.158L26.701,-2.419L25.219,-2.676L25.166,-4.18L25.113,-5.682L25.053,-5.746L23.568,-6.011L22.092,-6.266L22.038,-7.773L21.981,-9.276L21.921,-9.342L20.439,-9.609L18.958,-9.861L18.903,-11.364L18.85,-12.869L18.79,-12.939L17.305,-13.201L15.825,-13.458L15.774,-14.958L15.718,-16.464L15.658,-16.536L14.174,-16.793L12.696,-17.051L12.641,-18.558L12.591,-20.058L12.526,-20.127L11.046,-20.385L9.567,-20.645L9.51,-22.151L9.457,-23.652L9.396,-23.721L7.917,-23.98L6.432,-24.238L6.377,-25.742L6.328,-27.244L6.264,-27.315L4.787,-27.574L3.301,-27.834L3.249,-29.337L3.197,-30.837L3.135,-30.908L1.654,-31.166L0.172,-31.428L0.118,-32.932L0.062,-34.435L0.007,-34.501L-1.479,-34.764L-2.318,-34.911L-2.327,-34.906L-1.483,-34.759L0,-34.501Z" style="fill:rgb(255,255,231);fill-rule:nonzero;"/>
                                    </g>
                                    <g transform="matrix(1,0,0,1,293.075,176.95)">
                                        <path d="M0,-0.062L0.051,0L0.051,-0.003L0,-0.062Z" style="fill:rgb(255,255,231);fill-rule:nonzero;"/>
                                    </g>
                                    <g transform="matrix(1,0,0,1,153.693,180.646)">
                                        <path d="M0,64.907L0.063,64.978L1.546,65.236L3.023,65.494L3.081,67.001L3.13,68.496L3.193,68.572L4.676,68.829L6.153,69.092L6.208,70.59L6.263,72.093L6.323,72.163L7.804,72.421L9.286,72.681L9.341,74.185L9.394,75.689L9.451,75.757L10.937,76.014L12.42,76.274L12.47,77.779L12.528,79.281L12.585,79.353L14.067,79.611L15.549,79.872L15.6,81.372L15.656,82.877L15.719,82.95L17.199,83.207L18.682,83.464L18.732,84.968L18.786,86.471L18.848,86.539L20.329,86.8L21.81,87.057L21.865,88.56L21.917,90.066L21.978,90.135L23.461,90.392L24.94,90.651L24.995,92.16L25.051,93.659L25.109,93.727L26.59,93.989L28.076,94.249L28.127,95.752L28.18,97.253L28.241,97.324L29.722,97.58L31.156,97.83L142.65,2.392L142.616,1.4L142.563,-0.103L142.506,-0.171L141.02,-0.431L139.536,-0.685L139.485,-2.193L139.433,-3.697L139.381,-3.758L139.373,-3.762L137.889,-4.024L136.406,-4.279L136.353,-5.785L136.306,-7.288L136.244,-7.36L134.756,-7.619L133.273,-7.875L133.224,-9.378L133.171,-10.885L133.144,-10.914L133.113,-10.957L131.625,-11.217L130.142,-11.467L130.092,-12.974L130.04,-14.481L129.978,-14.55L128.495,-14.806L127.013,-15.064L126.96,-16.571L126.912,-18.07L126.85,-18.145L125.365,-18.4L123.881,-18.656L123.828,-20.167L123.779,-21.667L123.718,-21.739L122.237,-21.992L120.747,-22.247L120.694,-23.758L120.647,-25.257L120.614,-25.298L120.589,-25.328L119.106,-25.586L117.619,-25.843L117.566,-27.35L117.518,-28.854L117.483,-28.89L117.454,-28.921L115.974,-29.179L114.488,-29.437L114.433,-30.949L114.385,-32.447L114.323,-32.518L112.84,-32.776L111.997,-32.923L111.175,-32.229L-0.072,62.799L-0.053,63.401L0,64.907Z" style="fill:rgb(255,255,231);fill-rule:nonzero;"/>
                                    </g>
                                    <g transform="matrix(1,0,0,1,286.807,169.733)">
                                        <path d="M0,-0.043L0.03,0L0.005,-0.036L0,-0.043Z" style="fill:rgb(255,255,231);fill-rule:nonzero;"/>
                                    </g>
                                    <g transform="matrix(-1,0,0,1,289.998,173.358)">
                                        <rect x="-0.001" y="-0.071" width="0.061" height="0.071" style="fill:rgb(255,255,231);"/>
                                    </g>
                                    <g transform="matrix(1,0,0,1,289.998,173.287)">
                                        <path d="M0,0.066L-0.06,0L0,0.066Z" style="fill:rgb(255,255,231);fill-rule:nonzero;"/>
                                    </g>
                                    <g transform="matrix(1,0,0,1,274.283,155.348)">
                                        <path d="M0,-0.03L0.024,0L0,-0.03Z" style="fill:rgb(255,255,231);fill-rule:nonzero;"/>
                                    </g>
                                    <g transform="matrix(1,0,0,1,268.023,148.199)">
                                        <path d="M0,-0.072L-0.007,-0.072L0.055,0L0,-0.072Z" style="fill:rgb(255,255,231);fill-rule:nonzero;"/>
                                    </g>
                                    <g transform="matrix(1,0,0,1,271.176,151.792)">
                                        <path d="M0,-0.036L0.035,0L0,-0.036Z" style="fill:rgb(255,255,231);fill-rule:nonzero;"/>
                                    </g>
                                </g>
                            </g>
                            <g transform="matrix(0.989095,0.147279,-0.147279,0.989095,63.2735,-54.5494)">
                                <g opacity="0.5">
                                    <g transform="matrix(1,0,0,1,593.456,202.815)">
                                        <path d="M0,-0.079L-0.033,-0.009L-0.038,0L0,-0.079Z" style="fill:rgb(255,255,231);fill-rule:nonzero;"/>
                                    </g>
                                    <g transform="matrix(1,0,0,1,597.311,194.112)">
                                        <path d="M0,-0.021L-0.013,0.005L0.005,-0.026L0,-0.021Z" style="fill:rgb(255,255,231);fill-rule:nonzero;"/>
                                    </g>
                                    <g transform="matrix(1,0,0,1,597.299,194.092)">
                                        <path d="M0,0.026L0.013,0L0,0.026Z" style="fill:rgb(255,255,231);fill-rule:nonzero;"/>
                                    </g>
                                    <g transform="matrix(1,0,0,1,593.456,202.806)">
                                        <path d="M0,-0.07L-0.033,0L0,-0.07Z" style="fill:rgb(255,255,231);fill-rule:nonzero;"/>
                                    </g>
                                    <g transform="matrix(1,0,0,1,591.511,207.17)">
                                        <path d="M0,-0.078L-0.038,0.004L0,-0.082L0,-0.078Z" style="fill:rgb(255,255,231);fill-rule:nonzero;"/>
                                    </g>
                                    <g transform="matrix(1,0,0,1,591.511,207.174)">
                                        <path d="M0,-0.086L-0.038,0L0,-0.086Z" style="fill:rgb(255,255,231);fill-rule:nonzero;"/>
                                    </g>
                                    <g transform="matrix(1,0,0,1,605.111,176.709)">
                                        <path d="M0,-0.086L-0.038,0L0,-0.086Z" style="fill:rgb(255,255,231);fill-rule:nonzero;"/>
                                    </g>
                                    <g transform="matrix(1,0,0,1,605.111,176.709)">
                                        <path d="M0,-0.086L-0.038,0L0,-0.086Z" style="fill:rgb(255,255,231);fill-rule:nonzero;"/>
                                    </g>
                                    <g transform="matrix(1,0,0,1,589.529,211.459)">
                                        <path d="M0,0.065L0.03,0L0,0.065Z" style="fill:rgb(255,255,231);fill-rule:nonzero;"/>
                                    </g>
                                    <g transform="matrix(1,0,0,1,468.532,115.859)">
                                        <path d="M0,-0.424L0.99,0L0,-0.424Z" style="fill:rgb(255,255,231);fill-rule:nonzero;"/>
                                    </g>
                                    <g transform="matrix(1,0,0,1,585.379,175.229)">
                                        <path d="M0,40.943L1.343,40.264L1.377,40.175L0.988,38.729L0.598,37.277L1.941,36.592L3.286,35.907L3.318,35.825L2.932,34.377L2.546,32.915L3.882,32.237L5.229,31.557L5.265,31.475L4.874,30.018L4.489,28.564L5.828,27.886L7.173,27.201L7.209,27.119L6.816,25.667L6.426,24.215L7.771,23.535L9.111,22.855L9.151,22.768L8.764,21.313L8.371,19.863L9.717,19.18L11.054,18.499L11.091,18.413L10.705,16.961L10.312,15.508L11.656,14.825L13.001,14.145L13.036,14.061L12.646,12.61L12.257,11.153L13.602,10.473L14.94,9.794L14.979,9.707L14.594,8.255L14.207,6.805L15.546,6.122L16.882,5.442L16.926,5.352L16.529,3.908L16.147,2.45L17.483,1.772L18.83,1.09L18.865,1.006L18.475,-0.452L18.318,-1.033L19.179,-0.664L19.343,-0.063L19.732,1.394L19.694,1.48L18.352,2.16L17.006,2.831L17.4,4.292L17.79,5.74L17.749,5.826L16.412,6.506L15.064,7.186L15.454,8.643L15.846,10.095L15.805,10.182L14.464,10.859L13.115,11.54L13.514,13L13.902,14.451L13.865,14.532L12.521,15.212L11.176,15.893L11.568,17.35L11.957,18.802L11.938,18.858L11.92,18.889L10.583,19.565L9.229,20.249L9.629,21.701L10.011,23.158L9.977,23.24L8.635,23.918L7.29,24.6L7.682,26.056L8.077,27.507L8.039,27.586L8.039,27.59L6.69,28.27L5.347,28.95L5.742,30.402L6.132,31.859L6.094,31.945L4.75,32.625L3.405,33.299L3.795,34.757L4.189,36.214L4.181,36.23L4.15,36.295L2.808,36.981L1.461,37.657L1.852,39.114L2.242,40.561L2.238,40.577L2.208,40.647L0.861,41.328L-0.422,41.976L-1.299,41.601L0,40.943Z" style="fill:rgb(255,255,231);fill-rule:nonzero;"/>
                                    </g>
                                    <g transform="matrix(1,0,0,1,587.621,215.806)">
                                        <path d="M0,-0.016L0.001,-0.008L-0.004,0L0,-0.016Z" style="fill:rgb(255,255,231);fill-rule:nonzero;"/>
                                    </g>
                                    <g transform="matrix(1,0,0,1,585.683,220.231)">
                                        <path d="M0,-0.086L-0.027,-0.018L-0.043,0L0,-0.086Z" style="fill:rgb(255,255,231);fill-rule:nonzero;"/>
                                    </g>
                                    <g transform="matrix(1,0,0,1,587.622,215.794)">
                                        <path d="M0,0L0,0.004L-0.001,-0.004L0,0Z" style="fill:rgb(255,255,231);fill-rule:nonzero;"/>
                                    </g>
                                    <g transform="matrix(1,0,0,1,603.694,115.875)">
                                        <path d="M0,58.305L0.003,58.321L-134.172,-0.016L0,58.305Z" style="fill:rgb(255,255,231);fill-rule:nonzero;"/>
                                    </g>
                                    <g transform="matrix(0.415292,-0.909688,-0.909688,-0.415292,458.636,133.958)">
                                        <rect x="-0.004" y="0.004" width="0.054" height="0.002" style="fill:rgb(255,255,231);"/>
                                    </g>
                                    <g transform="matrix(1,0,0,1,460.592,129.606)">
                                        <path d="M0,-0.043L0.005,-0.044L-0.017,0.001L0,-0.043Z" style="fill:rgb(255,255,231);fill-rule:nonzero;"/>
                                    </g>
                                    <g transform="matrix(0.33035,-0.943858,-0.943858,-0.33035,456.675,138.291)">
                                        <path d="M0.013,-0.023L0.034,-0.023L0.036,-0.025L-0.055,-0.016L0.013,-0.023Z" style="fill:rgb(255,255,231);fill-rule:nonzero;"/>
                                    </g>
                                    <g transform="matrix(1,0,0,1,454.766,142.624)">
                                        <path d="M0,-0.008L-0.004,0L0,-0.008Z" style="fill:rgb(255,255,231);fill-rule:nonzero;"/>
                                    </g>
                                    <g transform="matrix(1,0,0,1,460.575,129.601)">
                                        <path d="M0,0.005L0.021,-0.04L-0.017,0.045L0,0.005Z" style="fill:rgb(255,255,231);fill-rule:nonzero;"/>
                                    </g>
                                    <g transform="matrix(1,0,0,1,458.612,133.96)">
                                        <path d="M0,0.04L0.019,0L0,0.04Z" style="fill:rgb(255,255,231);fill-rule:nonzero;"/>
                                    </g>
                                    <g transform="matrix(1,0,0,1,456.708,138.287)">
                                        <path d="M0,-0.02L-0.007,0L0,-0.02Z" style="fill:rgb(255,255,231);fill-rule:nonzero;"/>
                                    </g>
                                    <g transform="matrix(1,0,0,1,466.428,157.101)">
                                        <path d="M0,-40.599L-0.004,-40.599L-0.035,-40.513L0.351,-39.063L0.744,-37.605L-0.604,-36.924L-1.943,-36.243L-1.964,-36.204L-1.981,-36.16L-1.588,-34.709L-1.199,-33.251L-2.544,-32.571L-3.892,-31.891L-3.904,-31.854L-3.922,-31.806L-3.532,-30.357L-3.139,-28.897L-4.491,-28.22L-5.831,-27.539L-5.836,-27.538L-5.853,-27.495L-5.869,-27.454L-5.476,-26.005L-5.085,-24.548L-6.432,-23.866L-7.776,-23.191L-7.775,-23.187L-7.797,-23.141L-7.815,-23.101L-7.422,-21.653L-7.031,-20.196L-8.373,-19.516L-9.717,-18.836L-9.72,-18.834L-9.727,-18.815L-9.756,-18.753L-9.361,-17.296L-8.973,-15.843L-10.315,-15.168L-11.662,-14.485L-11.666,-14.476L-11.68,-14.435L-11.697,-14.398L-11.307,-12.942L-10.912,-11.49L-12.261,-10.813L-13.604,-10.13L-13.645,-10.046L-13.642,-10.043L-13.249,-8.59L-12.857,-7.136L-14.204,-6.458L-15.547,-5.775L-15.555,-5.766L-15.586,-5.696L-15.586,-5.691L-15.194,-4.24L-14.8,-2.784L-16.146,-2.108L-17.492,-1.424L-17.526,-1.34L-17.135,0.111L-16.877,1.069L-16.885,1.063L-17.14,0.112L-17.529,-1.345L-17.492,-1.426L-16.153,-2.109L-14.809,-2.79L-15.197,-4.243L-15.589,-5.696L-15.552,-5.773L-14.205,-6.462L-12.87,-7.137L-13.258,-8.595L-13.645,-10.046L-13.604,-10.13L-12.266,-10.816L-10.926,-11.493L-11.31,-12.946L-11.701,-14.397L-11.664,-14.485L-10.32,-15.168L-8.98,-15.848L-9.371,-17.295L-9.756,-18.753L-9.72,-18.839L-8.377,-19.519L-7.04,-20.197L-7.429,-21.655L-7.819,-23.103L-7.776,-23.191L-5.096,-24.549L-5.484,-26.005L-5.869,-27.457L-5.836,-27.538L-4.499,-28.223L-3.154,-28.903L-3.537,-30.357L-3.929,-31.809L-3.893,-31.895L-2.552,-32.574L-1.209,-33.259L-1.599,-34.711L-1.985,-36.16L-1.944,-36.247L-0.606,-36.928L0.73,-37.61L-0.042,-40.516L-0.004,-40.599L1.334,-41.283L2.1,-41.668L2.104,-41.666L1.343,-41.28L0,-40.599Z" style="fill:rgb(255,255,231);fill-rule:nonzero;"/>
                                    </g>
                                    <g transform="matrix(1,0,0,1,450.873,151.41)">
                                        <path d="M0,-0.075L-0.031,0L-0.031,-0.005L0,-0.075Z" style="fill:rgb(255,255,231);fill-rule:nonzero;"/>
                                    </g>
                                    <g transform="matrix(1,0,0,1,604.244,156.03)">
                                        <path d="M0,20.205L-0.035,20.289L-1.382,20.971L-2.718,21.649L-2.336,23.107L-1.939,24.551L-1.983,24.641L-3.319,25.321L-4.658,26.004L-4.271,27.454L-3.887,28.906L-3.925,28.993L-5.264,29.672L-6.608,30.352L-6.22,31.809L-5.829,33.26L-5.864,33.344L-7.209,34.024L-8.554,34.707L-8.16,36.16L-7.774,37.612L-7.812,37.698L-9.148,38.379L-10.494,39.062L-10.102,40.512L-9.714,41.967L-9.754,42.054L-11.094,42.734L-12.439,43.414L-12.049,44.866L-11.656,46.318L-11.692,46.4L-13.037,47.085L-14.376,47.763L-13.991,49.217L-13.601,50.674L-13.637,50.756L-14.983,51.436L-16.319,52.114L-15.934,53.576L-15.547,55.024L-15.579,55.106L-16.924,55.791L-18.268,56.476L-17.877,57.928L-17.488,59.374L-17.522,59.463L-18.865,60.142L-20.164,60.8L-154.693,2.141L-154.951,1.182L-155.343,-0.269L-155.309,-0.353L-153.962,-1.037L-152.616,-1.713L-153.011,-3.169L-153.402,-4.62L-153.371,-4.695L-153.363,-4.704L-152.021,-5.387L-150.674,-6.065L-151.065,-7.519L-151.458,-8.972L-151.421,-9.059L-150.077,-9.742L-148.729,-10.419L-149.123,-11.871L-149.514,-13.327L-149.496,-13.364L-149.479,-13.414L-148.132,-14.097L-146.789,-14.772L-147.178,-16.225L-147.572,-17.682L-147.533,-17.765L-146.189,-18.445L-144.848,-19.125L-145.238,-20.582L-145.632,-22.03L-145.593,-22.12L-144.248,-22.795L-142.901,-23.477L-143.292,-24.934L-143.686,-26.383L-143.647,-26.468L-142.308,-27.149L-140.955,-27.826L-141.349,-29.286L-141.738,-30.735L-141.721,-30.783L-141.708,-30.82L-140.36,-31.5L-139.016,-32.18L-139.404,-33.638L-139.798,-35.089L-139.78,-35.133L-139.76,-35.172L-138.42,-35.853L-137.072,-36.534L-137.466,-37.992L-137.852,-39.442L-137.816,-39.528L-136.474,-40.209L-135.712,-40.595L-134.722,-40.171L-0.547,18.166L-0.391,18.747L0,20.205Z" style="fill:rgb(255,255,231);fill-rule:nonzero;"/>
                                    </g>
                                    <g transform="matrix(1,0,0,1,454.766,142.665)">
                                        <path d="M0,-0.049L-0.018,0L-0.004,-0.041L0,-0.049Z" style="fill:rgb(255,255,231);fill-rule:nonzero;"/>
                                    </g>
                                    <g transform="matrix(1,0,0,1,452.823,147.058)">
                                        <path d="M0,-0.087L-0.037,0L-0.04,-0.004L0,-0.087Z" style="fill:rgb(255,255,231);fill-rule:nonzero;"/>
                                    </g>
                                    <g transform="matrix(1,0,0,1,452.783,146.972)">
                                        <path d="M0,0.083L0.04,0L0,0.083Z" style="fill:rgb(255,255,231);fill-rule:nonzero;"/>
                                    </g>
                                    <g transform="matrix(1,0,0,1,462.536,125.247)">
                                        <path d="M0,-0.037L-0.013,0L0,-0.037Z" style="fill:rgb(255,255,231);fill-rule:nonzero;"/>
                                    </g>
                                    <g transform="matrix(1,0,0,1,466.424,116.588)">
                                        <path d="M0,-0.086L0.004,-0.086L-0.031,0L0,-0.086Z" style="fill:rgb(255,255,231);fill-rule:nonzero;"/>
                                    </g>
                                    <g transform="matrix(1,0,0,1,464.464,120.94)">
                                        <path d="M0,-0.044L-0.018,0L0,-0.044Z" style="fill:rgb(255,255,231);fill-rule:nonzero;"/>
                                    </g>
                                </g>
                            </g>
                            <g transform="matrix(0.989095,0.147279,-0.147279,0.989095,63.2735,-54.5494)">
                                <g opacity="0.5">
                                    <g transform="matrix(1,0,0,1,522.51,641.136)">
                                        <path d="M0,-0.064L0.05,-0.006L0.057,0L0,-0.064Z" style="fill:rgb(255,255,231);fill-rule:nonzero;"/>
                                    </g>
                                    <g transform="matrix(1,0,0,1,516.291,633.952)">
                                        <path d="M0,-0.021L0.02,0L-0.003,-0.021L0,-0.021Z" style="fill:rgb(255,255,231);fill-rule:nonzero;"/>
                                    </g>
                                    <g transform="matrix(1,0,0,1,516.31,633.93)">
                                        <path d="M0,0.021L-0.02,0L0,0.021Z" style="fill:rgb(255,255,231);fill-rule:nonzero;"/>
                                    </g>
                                    <g transform="matrix(1,0,0,1,522.51,641.13)">
                                        <path d="M0,-0.058L0.05,0L0,-0.058Z" style="fill:rgb(255,255,231);fill-rule:nonzero;"/>
                                    </g>
                                    <g transform="matrix(1,0,0,1,525.644,644.729)">
                                        <path d="M0,-0.06L0.062,0.005L0,-0.065L0,-0.06Z" style="fill:rgb(255,255,231);fill-rule:nonzero;"/>
                                    </g>
                                    <g transform="matrix(1,0,0,1,525.644,644.734)">
                                        <path d="M0,-0.07L0.062,0L0,-0.07Z" style="fill:rgb(255,255,231);fill-rule:nonzero;"/>
                                    </g>
                                    <g transform="matrix(1,0,0,1,503.726,619.581)">
                                        <path d="M0,-0.072L0.06,0L0,-0.072Z" style="fill:rgb(255,255,231);fill-rule:nonzero;"/>
                                    </g>
                                    <g transform="matrix(1,0,0,1,503.726,619.581)">
                                        <path d="M0,-0.072L0.06,0L0,-0.072Z" style="fill:rgb(255,255,231);fill-rule:nonzero;"/>
                                    </g>
                                    <g transform="matrix(1,0,0,1,528.833,648.273)">
                                        <path d="M0,0.053L-0.047,0L0,0.053Z" style="fill:rgb(255,255,231);fill-rule:nonzero;"/>
                                    </g>
                                    <g transform="matrix(1,0,0,1,616.437,521.746)">
                                        <path d="M0,-0.691L-0.821,0L0,-0.691Z" style="fill:rgb(255,255,231);fill-rule:nonzero;"/>
                                    </g>
                                    <g transform="matrix(1,0,0,1,534.16,617.634)">
                                        <path d="M0,33.925L-1.479,33.665L-1.539,33.594L-1.591,32.094L-1.644,30.593L-3.129,30.332L-4.611,30.071L-4.669,30.002L-4.724,28.501L-4.778,26.993L-6.258,26.734L-7.741,26.477L-7.804,26.406L-7.854,24.904L-7.909,23.401L-9.393,23.143L-10.874,22.883L-10.934,22.815L-10.987,21.308L-11.039,19.807L-12.521,19.551L-14.002,19.293L-14.063,19.219L-14.119,17.715L-14.165,16.214L-15.654,15.953L-17.136,15.694L-17.192,15.624L-17.25,14.122L-17.296,12.615L-18.785,12.358L-20.268,12.1L-20.326,12.033L-20.379,10.529L-20.432,9.021L-21.916,8.766L-23.396,8.506L-23.455,8.435L-23.515,6.931L-23.569,5.434L-25.048,5.171L-26.526,4.911L-26.588,4.838L-26.637,3.344L-26.699,1.836L-28.175,1.578L-29.658,1.321L-29.719,1.247L-29.792,-0.863L-30.505,-0.252L-30.487,0.367L-30.435,1.875L-30.375,1.947L-28.891,2.203L-27.406,2.451L-27.357,3.964L-27.304,5.465L-27.241,5.535L-25.758,5.791L-24.277,6.05L-24.224,7.559L-24.172,9.059L-24.108,9.131L-22.626,9.385L-21.138,9.641L-21.092,11.153L-21.042,12.657L-20.984,12.723L-19.497,12.982L-18.012,13.239L-17.963,14.744L-17.91,16.247L-17.872,16.297L-17.85,16.318L-16.368,16.576L-14.875,16.834L-14.834,18.338L-14.776,19.846L-14.715,19.912L-13.235,20.169L-11.748,20.43L-11.701,21.935L-11.65,23.439L-11.594,23.503L-11.593,23.505L-10.101,23.763L-8.62,24.02L-8.573,25.523L-8.517,27.03L-8.455,27.101L-6.973,27.36L-5.49,27.608L-5.438,29.12L-5.389,30.626L-5.374,30.64L-5.327,30.693L-3.843,30.956L-2.355,31.208L-2.302,32.718L-2.257,34.217L-2.245,34.23L-2.192,34.287L-0.711,34.544L0.709,34.788L1.437,34.171L0,33.925Z" style="fill:rgb(255,255,231);fill-rule:nonzero;"/>
                                    </g>
                                    <g transform="matrix(1,0,0,1,531.903,651.864)">
                                        <path d="M0,-0.013L0.002,-0.009L0.012,0L0,-0.013Z" style="fill:rgb(255,255,231);fill-rule:nonzero;"/>
                                    </g>
                                    <g transform="matrix(1,0,0,1,535.034,655.516)">
                                        <path d="M0,-0.069L0.047,-0.011L0.064,0L0,-0.069Z" style="fill:rgb(255,255,231);fill-rule:nonzero;"/>
                                    </g>
                                    <g transform="matrix(1,0,0,1,531.905,651.851)">
                                        <path d="M0,0.004L-0.002,0L0,0.004Z" style="fill:rgb(255,255,231);fill-rule:nonzero;"/>
                                    </g>
                                    <g transform="matrix(1,0,0,1,504.366,521.759)">
                                        <path d="M0,94.999L0.002,95.012L111.25,-0.013L0,94.999Z" style="fill:rgb(255,255,231);fill-rule:nonzero;"/>
                                    </g>
                                    <g transform="matrix(-0.716995,-0.697078,-0.697078,0.716995,631.318,535.861)">
                                        <rect x="-0.012" y="0.001" width="0.054" height="0.001" style="fill:rgb(255,255,231);"/>
                                    </g>
                                    <g transform="matrix(1,0,0,1,628.16,532.274)">
                                        <path d="M0,-0.038L-0.002,-0.038L0.03,0L0,-0.038Z" style="fill:rgb(255,255,231);fill-rule:nonzero;"/>
                                    </g>
                                    <g transform="matrix(-0.683941,-0.729537,-0.729537,0.683941,634.447,539.484)">
                                        <path d="M0.037,-0.021L0.059,-0.021L0.062,-0.018L-0.034,-0.019L0.037,-0.021Z" style="fill:rgb(255,255,231);fill-rule:nonzero;"/>
                                    </g>
                                    <g transform="matrix(1,0,0,1,637.552,543.026)">
                                        <path d="M0,-0.004L0.009,0L0,-0.004Z" style="fill:rgb(255,255,231);fill-rule:nonzero;"/>
                                    </g>
                                    <g transform="matrix(1,0,0,1,628.19,532.271)">
                                        <path d="M0,0.003L-0.032,-0.035L0.028,0.038L0,0.003Z" style="fill:rgb(255,255,231);fill-rule:nonzero;"/>
                                    </g>
                                    <g transform="matrix(1,0,0,1,631.352,535.871)">
                                        <path d="M0,0.031L-0.027,0L0,0.031Z" style="fill:rgb(255,255,231);fill-rule:nonzero;"/>
                                    </g>
                                    <g transform="matrix(1,0,0,1,634.422,539.443)">
                                        <path d="M0,-0.016L0.015,0L0,-0.016Z" style="fill:rgb(255,255,231);fill-rule:nonzero;"/>
                                    </g>
                                    <g transform="matrix(1,0,0,1,618.763,555.961)">
                                        <path d="M0,-34.504L0.006,-34.505L0.062,-34.433L0.113,-32.935L0.165,-31.422L1.649,-31.166L3.13,-30.908L3.161,-30.878L3.191,-30.84L3.242,-29.339L3.295,-27.832L4.784,-27.574L6.268,-27.317L6.292,-27.285L6.324,-27.243L6.372,-25.747L6.425,-24.234L7.917,-23.981L9.396,-23.725L9.397,-23.725L9.428,-23.687L9.456,-23.651L9.502,-22.151L9.558,-20.643L11.041,-20.384L12.524,-20.128L12.526,-20.125L12.563,-20.09L12.59,-20.059L12.64,-18.554L12.692,-17.048L14.171,-16.79L15.655,-16.534L15.659,-16.534L15.674,-16.519L15.721,-16.466L15.77,-14.96L15.819,-13.452L17.305,-13.2L18.789,-12.94L18.798,-12.936L18.822,-12.9L18.847,-12.869L18.901,-11.363L18.951,-9.86L20.435,-9.604L21.923,-9.347L21.981,-9.277L21.981,-9.272L22.032,-7.77L22.082,-6.263L23.567,-6.011L25.051,-5.747L25.062,-5.742L25.112,-5.684L25.112,-5.681L25.163,-4.175L25.212,-2.672L26.696,-2.416L28.182,-2.156L28.242,-2.09L28.293,-0.586L28.326,0.407L28.332,0.396L28.298,-0.586L28.243,-2.091L28.182,-2.161L26.705,-2.422L25.221,-2.679L25.166,-4.182L25.115,-5.684L25.058,-5.747L23.571,-6.015L22.095,-6.269L22.036,-7.776L21.981,-9.277L21.923,-9.347L20.44,-9.61L18.962,-9.863L18.905,-11.366L18.854,-12.869L18.793,-12.942L17.311,-13.2L15.829,-13.46L15.775,-14.961L15.721,-16.466L15.659,-16.537L14.176,-16.795L12.699,-17.055L12.641,-18.558L12.596,-20.061L12.524,-20.128L11.049,-20.389L9.569,-20.648L9.512,-22.151L9.456,-23.653L9.397,-23.725L7.921,-23.985L6.435,-24.243L6.379,-25.748L6.329,-27.249L6.268,-27.321L4.787,-27.575L3.302,-27.836L3.249,-29.343L3.197,-30.841L3.135,-30.912L1.655,-31.17L0.173,-31.431L0.122,-32.935L0.065,-34.437L0.006,-34.505L-1.475,-34.767L-2.318,-34.911L-2.325,-34.906L-1.483,-34.762L0,-34.504Z" style="fill:rgb(255,255,231);fill-rule:nonzero;"/>
                                    </g>
                                    <g transform="matrix(1,0,0,1,643.824,550.281)">
                                        <path d="M0,-0.062L0.051,0L0.051,-0.003L0,-0.062Z" style="fill:rgb(255,255,231);fill-rule:nonzero;"/>
                                    </g>
                                    <g transform="matrix(1,0,0,1,504.441,553.979)">
                                        <path d="M0,64.902L0.061,64.975L1.544,65.233L3.02,65.491L3.082,66.999L3.131,68.493L3.192,68.566L4.671,68.826L6.149,69.089L6.204,70.586L6.264,72.089L6.323,72.161L7.803,72.421L9.287,72.675L9.34,74.184L9.393,75.688L9.451,75.755L10.934,76.012L12.423,76.27L12.469,77.777L12.526,79.279L12.583,79.348L14.064,79.608L15.554,79.869L15.6,81.37L15.655,82.874L15.717,82.948L17.198,83.206L18.68,83.462L18.731,84.963L18.785,86.469L18.845,86.538L20.326,86.798L21.81,87.055L21.865,88.559L21.915,90.061L21.978,90.131L23.461,90.388L24.94,90.648L24.995,92.156L25.05,93.657L25.107,93.725L26.59,93.987L28.075,94.248L28.128,95.749L28.18,97.249L28.239,97.32L29.719,97.58L31.156,97.826L142.647,2.389L142.614,1.396L142.563,-0.108L142.503,-0.174L141.018,-0.434L139.533,-0.69L139.484,-2.193L139.434,-3.699L139.383,-3.76L139.372,-3.765L137.889,-4.029L136.403,-4.281L136.354,-5.787L136.303,-7.289L136.244,-7.365L134.756,-7.621L133.272,-7.878L133.223,-9.381L133.168,-10.887L133.144,-10.918L133.11,-10.957L131.626,-11.218L130.141,-11.47L130.091,-12.978L130.042,-14.484L129.977,-14.552L128.492,-14.808L127.014,-15.066L126.961,-16.572L126.911,-18.077L126.846,-18.146L125.362,-18.402L123.879,-18.661L123.823,-20.169L123.777,-21.669L123.717,-21.743L122.238,-21.998L120.746,-22.252L120.693,-23.765L120.646,-25.261L120.613,-25.303L120.589,-25.334L119.105,-25.592L117.616,-25.85L117.563,-27.357L117.513,-28.858L117.482,-28.896L117.451,-28.926L115.971,-29.184L114.486,-29.44L114.435,-30.952L114.383,-32.451L114.321,-32.522L112.838,-32.78L111.996,-32.924L111.175,-32.233L-0.073,62.792L-0.053,63.399L0,64.902Z" style="fill:rgb(255,255,231);fill-rule:nonzero;"/>
                                    </g>
                                    <g transform="matrix(1,0,0,1,637.552,543.061)">
                                        <path d="M0,-0.039L0.033,0L0.009,-0.035L0,-0.039Z" style="fill:rgb(255,255,231);fill-rule:nonzero;"/>
                                    </g>
                                    <g transform="matrix(1,0,0,1,640.686,546.689)">
                                        <path d="M0,-0.075L0.059,0L0.059,-0.006L0,-0.075Z" style="fill:rgb(255,255,231);fill-rule:nonzero;"/>
                                    </g>
                                    <g transform="matrix(1,0,0,1,640.744,546.615)">
                                        <path d="M0,0.069L-0.059,0L0,0.069Z" style="fill:rgb(255,255,231);fill-rule:nonzero;"/>
                                    </g>
                                    <g transform="matrix(1,0,0,1,625.03,528.675)">
                                        <path d="M0,-0.031L0.024,0L0,-0.031Z" style="fill:rgb(255,255,231);fill-rule:nonzero;"/>
                                    </g>
                                    <g transform="matrix(1,0,0,1,618.769,521.528)">
                                        <path d="M0,-0.072L-0.006,-0.071L0.056,0L0,-0.072Z" style="fill:rgb(255,255,231);fill-rule:nonzero;"/>
                                    </g>
                                    <g transform="matrix(1,0,0,1,621.924,525.121)">
                                        <path d="M0,-0.038L0.03,0L0,-0.038Z" style="fill:rgb(255,255,231);fill-rule:nonzero;"/>
                                    </g>
                                </g>
                            </g>
                            <g transform="matrix(0.989095,0.147279,-0.147279,0.989095,63.2735,-54.5494)">
                                <g opacity="0.5">
                                    <g transform="matrix(1,0,0,1,348.592,667.151)">
                                        <path d="M0,-0.08L-0.034,-0.009L-0.037,0L0,-0.08Z" style="fill:rgb(255,255,231);fill-rule:nonzero;"/>
                                    </g>
                                    <g transform="matrix(1,0,0,1,352.449,658.45)">
                                        <path d="M0,-0.023L-0.014,0.002L0.004,-0.025L0,-0.023Z" style="fill:rgb(255,255,231);fill-rule:nonzero;"/>
                                    </g>
                                    <g transform="matrix(1,0,0,1,352.439,658.427)">
                                        <path d="M0,0.025L-0.004,0.025L0.01,0L0,0.025Z" style="fill:rgb(255,255,231);fill-rule:nonzero;"/>
                                    </g>
                                    <g transform="matrix(1,0,0,1,348.592,667.142)">
                                        <path d="M0,-0.071L-0.034,0L0,-0.071Z" style="fill:rgb(255,255,231);fill-rule:nonzero;"/>
                                    </g>
                                    <g transform="matrix(-0.438202,0.898876,0.898876,0.438202,346.655,671.503)">
                                        <rect x="-0.064" y="-0.039" width="0.09" height="0" style="fill:rgb(255,255,231);"/>
                                    </g>
                                    <g transform="matrix(1,0,0,1,346.649,671.51)">
                                        <path d="M0,-0.084L-0.04,0L0,-0.084Z" style="fill:rgb(255,255,231);fill-rule:nonzero;"/>
                                    </g>
                                    <g transform="matrix(1,0,0,1,360.248,641.044)">
                                        <path d="M0,-0.089L-0.039,0L0,-0.089Z" style="fill:rgb(255,255,231);fill-rule:nonzero;"/>
                                    </g>
                                    <g transform="matrix(1,0,0,1,360.248,641.044)">
                                        <path d="M0,-0.089L-0.039,0L0,-0.089Z" style="fill:rgb(255,255,231);fill-rule:nonzero;"/>
                                    </g>
                                    <g transform="matrix(1,0,0,1,344.667,675.792)">
                                        <path d="M0,0.068L0.03,0L0,0.068Z" style="fill:rgb(255,255,231);fill-rule:nonzero;"/>
                                    </g>
                                    <g transform="matrix(1,0,0,1,223.67,580.194)">
                                        <path d="M0,-0.422L0.987,0L0,-0.422Z" style="fill:rgb(255,255,231);fill-rule:nonzero;"/>
                                    </g>
                                    <g transform="matrix(1,0,0,1,340.515,639.563)">
                                        <path d="M0,40.945L1.34,40.264L1.38,40.178L0.989,38.728L0.602,37.279L1.944,36.593L3.287,35.908L3.321,35.829L2.935,34.379L2.545,32.921L3.885,32.239L5.229,31.558L5.268,31.475L4.874,30.02L4.488,28.565L5.83,27.889L7.172,27.205L7.21,27.122L6.819,25.669L6.429,24.216L7.771,23.537L9.111,22.856L9.152,22.77L8.765,21.315L8.374,19.865L9.715,19.183L11.055,18.501L11.091,18.418L10.708,16.964L10.315,15.51L11.658,14.829L13.002,14.144L13.038,14.064L12.648,12.614L12.26,11.154L14.942,9.798L14.98,9.71L14.592,8.256L14.208,6.806L15.543,6.124L16.886,5.443L16.924,5.353L16.534,3.91L16.148,2.45L17.486,1.774L18.827,1.091L18.868,1.007L18.478,-0.451L18.32,-1.034L19.183,-0.661L19.343,-0.064L19.734,1.392L19.695,1.481L18.352,2.16L17.006,2.834L17.402,4.293L17.791,5.743L17.751,5.83L16.41,6.507L15.067,7.188L15.457,8.646L15.849,10.096L15.807,10.184L14.466,10.859L13.119,11.542L13.513,13L13.906,14.451L13.868,14.533L12.523,15.215L11.176,15.895L11.571,17.348L11.96,18.801L11.938,18.862L11.92,18.889L10.582,19.567L9.233,20.251L9.628,21.702L10.016,23.16L9.978,23.242L8.636,23.921L7.292,24.602L7.683,26.058L8.077,27.508L8.04,27.589L8.04,27.591L6.693,28.271L5.348,28.955L5.742,30.404L6.134,31.863L6.095,31.947L4.752,32.627L3.405,33.298L3.797,34.759L4.191,36.216L4.183,36.229L4.152,36.298L2.81,36.981L1.461,37.658L1.853,39.115L2.245,40.561L2.241,40.579L2.208,40.65L0.862,41.33L-0.424,41.979L-1.298,41.6L0,40.945Z" style="fill:rgb(255,255,231);fill-rule:nonzero;"/>
                                    </g>
                                    <g transform="matrix(1,0,0,1,342.76,680.142)">
                                        <path d="M0,-0.018L0,-0.008L-0.004,0L0,-0.018Z" style="fill:rgb(255,255,231);fill-rule:nonzero;"/>
                                    </g>
                                    <g transform="matrix(1,0,0,1,340.816,684.567)">
                                        <path d="M0,-0.087L-0.026,-0.02L-0.038,0L0,-0.087Z" style="fill:rgb(255,255,231);fill-rule:nonzero;"/>
                                    </g>
                                    <g transform="matrix(1,0,0,1,342.761,680.129)">
                                        <path d="M0,0L-0.001,0.005L-0.001,-0.005L0,0Z" style="fill:rgb(255,255,231);fill-rule:nonzero;"/>
                                    </g>
                                    <g transform="matrix(1,0,0,1,358.832,580.205)">
                                        <path d="M0,58.313L0.002,58.324L-134.175,-0.011L0,58.313Z" style="fill:rgb(255,255,231);fill-rule:nonzero;"/>
                                    </g>
                                    <g transform="matrix(1,0,0,1,213.768,598.285)">
                                        <path d="M0,0.011L0.021,-0.034L0.021,-0.039L-0.017,0.05L-0.02,0.05L0,0.011Z" style="fill:rgb(255,255,231);fill-rule:nonzero;"/>
                                    </g>
                                    <g transform="matrix(1,0,0,1,215.728,593.942)">
                                        <path d="M0,-0.045L0.005,-0.045L-0.016,0L0,-0.045Z" style="fill:rgb(255,255,231);fill-rule:nonzero;"/>
                                    </g>
                                    <g transform="matrix(0.388057,-0.921635,-0.921635,-0.388057,211.811,602.625)">
                                        <path d="M0.016,-0.022L0.037,-0.022L0.038,-0.025L-0.055,-0.021L0.016,-0.022Z" style="fill:rgb(255,255,231);fill-rule:nonzero;"/>
                                    </g>
                                    <g transform="matrix(1,0,0,1,209.903,606.959)">
                                        <path d="M0,-0.005L-0.005,0L0,-0.005Z" style="fill:rgb(255,255,231);fill-rule:nonzero;"/>
                                    </g>
                                    <g transform="matrix(1,0,0,1,215.713,593.935)">
                                        <path d="M0,0.006L0.021,-0.039L-0.017,0.045L0,0.006Z" style="fill:rgb(255,255,231);fill-rule:nonzero;"/>
                                    </g>
                                    <g transform="matrix(1,0,0,1,213.748,598.296)">
                                        <path d="M0,0.039L0.02,0L0,0.039Z" style="fill:rgb(255,255,231);fill-rule:nonzero;"/>
                                    </g>
                                    <g transform="matrix(1,0,0,1,211.845,602.62)">
                                        <path d="M0,-0.019L-0.008,0L0,-0.019Z" style="fill:rgb(255,255,231);fill-rule:nonzero;"/>
                                    </g>
                                    <g transform="matrix(1,0,0,1,221.562,621.438)">
                                        <path d="M0,-40.599L-0.004,-40.599L-0.037,-40.516L0.354,-39.066L0.743,-37.604L-0.601,-36.924L-1.94,-36.245L-1.96,-36.208L-1.982,-36.162L-1.588,-34.711L-1.198,-33.254L-2.543,-32.572L-3.887,-31.895L-3.904,-31.859L-3.923,-31.807L-3.531,-30.36L-3.138,-28.899L-4.49,-28.222L-5.829,-27.541L-5.834,-27.541L-5.85,-27.496L-5.867,-27.457L-5.476,-26.008L-5.085,-24.549L-6.428,-23.868L-7.774,-23.192L-7.774,-23.187L-7.795,-23.142L-7.815,-23.103L-7.812,-23.103L-7.418,-21.653L-7.029,-20.198L-8.369,-19.517L-9.715,-18.837L-9.717,-18.837L-9.726,-18.819L-9.753,-18.753L-9.362,-17.298L-8.968,-15.842L-10.314,-15.167L-11.659,-14.484L-11.665,-14.479L-11.679,-14.437L-11.695,-14.399L-11.303,-12.943L-10.913,-11.491L-12.256,-10.815L-13.602,-10.13L-13.642,-10.048L-13.641,-10.043L-13.249,-8.591L-12.857,-7.135L-14.199,-6.46L-15.542,-5.775L-15.55,-5.767L-15.582,-5.7L-15.582,-5.693L-15.192,-4.241L-14.799,-2.786L-16.144,-2.107L-17.489,-1.424L-17.525,-1.342L-17.133,0.108L-16.876,1.068L-16.884,1.062L-17.139,0.108L-17.526,-1.344L-17.493,-1.428L-16.149,-2.112L-14.808,-2.791L-15.196,-4.244L-15.585,-5.697L-15.548,-5.775L-14.204,-6.462L-12.868,-7.137L-13.256,-8.594L-13.642,-10.048L-13.603,-10.128L-12.262,-10.817L-10.921,-11.492L-11.309,-12.945L-11.697,-14.397L-11.662,-14.484L-10.318,-15.167L-8.977,-15.848L-9.366,-17.298L-9.754,-18.753L-9.717,-18.84L-8.375,-19.52L-7.036,-20.2L-7.424,-21.657L-7.815,-23.103L-7.774,-23.192L-6.433,-23.87L-5.094,-24.554L-5.48,-26.007L-5.87,-27.459L-5.834,-27.541L-4.492,-28.225L-3.149,-28.907L-3.537,-30.36L-3.928,-31.812L-3.889,-31.899L-2.551,-32.576L-1.208,-33.257L-1.595,-34.716L-1.984,-36.162L-1.945,-36.25L-0.603,-36.927L0.735,-37.613L0.348,-39.064L-0.039,-40.519L-0.004,-40.599L1.339,-41.284L2.1,-41.667L2.107,-41.666L1.345,-41.28L0,-40.599Z" style="fill:rgb(255,255,231);fill-rule:nonzero;"/>
                                    </g>
                                    <g transform="matrix(1,0,0,1,206.013,615.745)">
                                        <path d="M0,-0.074L-0.032,0L-0.032,-0.007L0,-0.074Z" style="fill:rgb(255,255,231);fill-rule:nonzero;"/>
                                    </g>
                                    <g transform="matrix(1,0,0,1,359.382,620.364)">
                                        <path d="M0,20.206L-0.041,20.289L-1.382,20.973L-2.72,21.648L-2.333,23.108L-1.943,24.552L-1.982,24.642L-3.324,25.322L-4.66,26.005L-4.275,27.454L-3.888,28.908L-3.926,28.996L-5.267,29.675L-6.608,30.352L-6.22,31.812L-5.83,33.263L-5.865,33.343L-7.209,34.027L-8.552,34.709L-8.159,36.162L-7.777,37.616L-7.812,37.699L-9.153,38.382L-10.494,39.063L-10.103,40.514L-9.716,41.969L-9.756,42.055L-11.096,42.735L-12.438,43.414L-12.048,44.867L-11.657,46.32L-11.696,46.403L-13.038,47.088L-14.38,47.764L-13.994,49.219L-13.6,50.674L-13.638,50.757L-14.983,51.437L-16.322,52.119L-15.933,53.577L-15.547,55.027L-15.581,55.106L-16.923,55.792L-18.266,56.477L-17.878,57.927L-17.487,59.377L-17.528,59.463L-18.868,60.144L-20.166,60.799L-154.696,2.142L-154.953,1.182L-155.345,-0.269L-155.309,-0.351L-153.963,-1.033L-152.619,-1.712L-153.012,-3.167L-153.401,-4.619L-153.37,-4.693L-153.362,-4.701L-152.019,-5.387L-150.677,-6.062L-151.069,-7.518L-151.461,-8.97L-151.421,-9.057L-150.076,-9.741L-148.732,-10.417L-149.123,-11.869L-149.515,-13.325L-149.499,-13.363L-149.479,-13.41L-148.134,-14.094L-146.788,-14.769L-147.182,-16.225L-147.573,-17.68L-147.535,-17.764L-146.189,-18.443L-144.849,-19.124L-145.238,-20.579L-145.632,-22.029L-145.594,-22.118L-144.248,-22.794L-142.905,-23.476L-143.295,-24.935L-143.687,-26.384L-143.649,-26.468L-142.31,-27.148L-140.958,-27.825L-141.351,-29.286L-141.743,-30.733L-141.724,-30.785L-141.707,-30.821L-140.363,-31.498L-139.018,-32.181L-139.408,-33.638L-139.802,-35.088L-139.78,-35.135L-139.76,-35.172L-138.421,-35.851L-137.077,-36.53L-137.465,-37.992L-137.857,-39.442L-137.82,-39.525L-136.475,-40.206L-135.712,-40.593L-134.726,-40.171L-0.548,18.164L-0.39,18.747L0,20.206Z" style="fill:rgb(255,255,231);fill-rule:nonzero;"/>
                                    </g>
                                    <g transform="matrix(1,0,0,1,209.903,607.001)">
                                        <path d="M0,-0.047L-0.02,0L-0.005,-0.042L0,-0.047Z" style="fill:rgb(255,255,231);fill-rule:nonzero;"/>
                                    </g>
                                    <g transform="matrix(0.447214,-0.894427,-0.894427,-0.447214,207.912,611.316)">
                                        <path d="M0.027,-0.04L0.029,-0.04L-0.066,-0.044L-0.062,-0.041L0.027,-0.04Z" style="fill:rgb(255,255,231);fill-rule:nonzero;"/>
                                    </g>
                                    <g transform="matrix(1,0,0,1,207.921,611.31)">
                                        <path d="M0,0.08L0.039,0L0,0.08Z" style="fill:rgb(255,255,231);fill-rule:nonzero;"/>
                                    </g>
                                    <g transform="matrix(1,0,0,1,217.676,589.579)">
                                        <path d="M0,-0.036L-0.017,0L0,-0.036Z" style="fill:rgb(255,255,231);fill-rule:nonzero;"/>
                                    </g>
                                    <g transform="matrix(1,0,0,1,221.559,580.922)">
                                        <path d="M0,-0.083L0.004,-0.083L-0.033,0L0,-0.083Z" style="fill:rgb(255,255,231);fill-rule:nonzero;"/>
                                    </g>
                                    <g transform="matrix(1,0,0,1,219.602,585.277)">
                                        <path d="M0,-0.047L-0.022,0L0,-0.047Z" style="fill:rgb(255,255,231);fill-rule:nonzero;"/>
                                    </g>
                                </g>
                            </g>
                            <g transform="matrix(0.989095,0.147279,-0.147279,0.989095,63.2735,-54.5494)">
                                <g opacity="0.4">
                                    <g transform="matrix(0.147854,0.989009,0.989009,-0.147854,473.109,353.043)">
                                        <path d="M-178.746,-207.455L240.774,-207.455" style="fill:none;fill-rule:nonzero;stroke:rgb(255,85,14);stroke-width:1px;"/>
                                    </g>
                                </g>
                            </g>
                            <g transform="matrix(0.989095,0.147279,-0.147279,0.989095,63.2735,-54.5494)">
                                <g opacity="0.8">
                                    <g>
                                        <clipPath id="_clip2">
                                            <rect x="266.803" y="264.67" width="285.023" height="111.217" clip-rule="nonzero"/>
                                        </clipPath>
                                        <g clip-path="url(#_clip2)">
                                            <g transform="matrix(0.98901,-0.14785,0.14785,0.98901,0,0)">
                                                <text x="219.716px" y="349.489px" style="font-family:'LucidaGrande', 'Lucida Grande', sans-serif;font-weight:500;font-size:16.956px;fill:rgb(30,63,80);">1<tspan x="227.709px 233.872px " y="349.489px 349.489px ">/4</tspan></text>
                                                <text x="241.965px" y="349.489px" style="font-family:'LucidaGrande', 'Lucida Grande', sans-serif;font-weight:500;font-size:16.956px;fill:rgb(30,63,80);">-</text>
                                                <text x="250.965px" y="349.489px" style="font-family:'LucidaGrande', 'Lucida Grande', sans-serif;font-weight:500;font-size:16.956px;fill:rgb(30,63,80);">C<tspan x="259.968px 268.988px " y="349.489px 349.489px ">UP</tspan></text>
                                                <text x="281.367px" y="349.489px" style="font-family:'LucidaGrande', 'Lucida Grande', sans-serif;font-weight:500;font-size:16.956px;fill:rgb(30,63,80);">O<tspan x="291.811px " y="349.489px ">F</tspan></text>
                                                <text x="302.375px" y="349.489px" style="font-family:'LucidaGrande', 'Lucida Grande', sans-serif;font-weight:500;font-size:16.956px;fill:rgb(30,63,80);">W<tspan x="314.152px 323.122px 331.115px 337.576px " y="349.489px 349.489px 349.489px 349.489px ">ATER</tspan></text>
                                            </g>
                                            <g transform="matrix(0.98901,-0.14785,0.14785,0.98901,0,0)">
                                                <text x="219.716px" y="377.381px" style="font-family:'LucidaGrande', 'Lucida Grande', sans-serif;font-weight:500;font-size:16.956px;fill:rgb(30,63,80);">1<tspan x="228.164px 234.783px " y="377.381px 377.381px ">/2</tspan></text>
                                                <text x="243.332px" y="377.381px" style="font-family:'LucidaGrande', 'Lucida Grande', sans-serif;font-weight:500;font-size:16.956px;fill:rgb(30,63,80);">-</text>
                                                <text x="252.729px" y="377.381px" style="font-family:'LucidaGrande', 'Lucida Grande', sans-serif;font-weight:500;font-size:16.956px;fill:rgb(30,63,80);">L<tspan x="259.497px 266.413px 278.745px 289.644px " y="377.381px 377.381px 377.381px 377.381px ">EMON</tspan></text>
                                                <text x="302.392px" y="377.381px" style="font-family:'LucidaGrande', 'Lucida Grande', sans-serif;font-weight:500;font-size:16.956px;fill:rgb(30,63,80);">J<tspan x="305.393px 314.868px 317.48px 326.938px " y="377.381px 377.381px 377.381px 377.381px ">UICE</tspan></text>
                                            </g>
                                            <g transform="matrix(0.98901,-0.14785,0.14785,0.98901,0,0)">
                                                <text x="219.716px" y="408.901px" style="font-family:'LucidaGrande', 'Lucida Grande', sans-serif;font-weight:500;font-size:16.956px;fill:rgb(30,63,80);">2<tspan x="227.934px 230.795px 233.656px 240.243px 246.78px 257.449px 266.693px " y="408.901px 408.901px 408.901px 408.901px 408.901px 408.901px 408.901px "> FLOUR</tspan></text>
                                            </g>
                                            <g transform="matrix(0.98901,-0.14785,0.14785,0.98901,0,0)">
                                                <text x="366.756px" y="350.014px" style="font-family:'LucidaGrande', 'Lucida Grande', sans-serif;font-weight:500;font-size:16.956px;fill:rgb(30,63,80);">1<tspan x="374.706px 380.825px " y="350.014px 350.014px ">/4</tspan></text>
                                                <text x="388.875px" y="350.014px" style="font-family:'LucidaGrande', 'Lucida Grande', sans-serif;font-weight:500;font-size:16.956px;fill:rgb(30,63,80);">-</text>
                                                <text x="401.397px" y="350.014px" style="font-family:'LucidaGrande', 'Lucida Grande', sans-serif;font-weight:500;font-size:16.956px;fill:rgb(30,63,80);"><tspan x="401.397px 410.583px 421.715px 432.218px 436.536px 448.496px 460.183px 465.666px 474.231px 486.837px 498.971px " y="350.014px 350.014px 350.014px 350.014px 350.014px 350.014px 350.014px 350.014px 350.014px 350.014px 350.014px ">BAKING SODA</tspan></text>
                                            </g>
                                            <g transform="matrix(0.98901,-0.14785,0.14785,0.98901,0,0)">
                                                <text x="366.756px" y="377.737px" style="font-family:'LucidaGrande', 'Lucida Grande', sans-serif;font-weight:500;font-size:16.956px;fill:rgb(30,63,80);">3<tspan x="375.382px 378.651px " y="377.737px 377.737px "> -</tspan></text>
                                                <text x="388.459px" y="377.737px" style="font-family:'LucidaGrande', 'Lucida Grande', sans-serif;font-weight:500;font-size:16.956px;fill:rgb(30,63,80);"><tspan x="388.459px 396.274px 402.192px 411.174px 419.601px 428.856px 430.949px 433.042px 439.524px 448px 455.45px 462.9px " y="377.737px 377.737px 377.737px 377.737px 377.737px 377.737px 377.737px 377.737px 377.737px 377.737px 377.737px 377.737px ">VEGAN BUTTE</tspan></text>
                                                <text x="468.819px" y="377.737px" style="font-family:'LucidaGrande', 'Lucida Grande', sans-serif;font-weight:500;font-size:16.956px;fill:rgb(30,63,80);">R</text>
                                            </g>
                                            <g transform="matrix(0.98901,-0.14785,0.14785,0.98901,0,0)">
                                                <text x="366.756px" y="408.901px" style="font-family:'LucidaGrande', 'Lucida Grande', sans-serif;font-weight:500;font-size:16.956px;fill:rgb(30,63,80);">1<tspan x="375.602px 382.618px " y="408.901px 408.901px ">/2</tspan></text>
                                                <text x="391.564px" y="408.901px" style="font-family:'LucidaGrande', 'Lucida Grande', sans-serif;font-weight:500;font-size:16.956px;fill:rgb(30,63,80);">-</text>
                                                <text x="399.769px" y="408.901px" style="font-family:'LucidaGrande', 'Lucida Grande', sans-serif;font-weight:500;font-size:16.956px;fill:rgb(30,63,80);">C<tspan x="409.625px 420.21px 423.219px 430.384px 437.549px 440.559px 444.048px 451.545px 458.859px 466.355px 473.852px 481.166px " y="408.901px 408.901px 408.901px 408.901px 408.901px 408.901px 408.901px 408.901px 408.901px 408.901px 408.901px 408.901px ">HILLI PEPPER</tspan></text>
                                            </g>
                                        </g>
                                    </g>
                                </g>
                            </g>
                            <g transform="matrix(0.989095,0.147279,-0.147279,0.989095,63.2735,-54.5494)">
                                <g opacity="0.8">
                                    <g transform="matrix(0.98901,-0.147852,0.147852,0.98901,0,0)">
                                        <text x="218.745px" y="504.907px" style="font-family:'LucidaGrande', 'Lucida Grande', sans-serif;font-weight:500;font-size:16.586px;fill:rgb(30,63,80);">L<tspan x="225.538px 233.675px 238.411px 245.601px 259.035px 262.232px 264.976px 273.365px 279.769px 288.012px " y="504.907px 504.907px 504.907px 504.907px 504.907px 504.907px 504.907px 504.907px 504.907px 504.907px ">orem ipsum</tspan></text>
                                        <text x="303.633px" y="504.907px" style="font-family:'LucidaGrande', 'Lucida Grande', sans-serif;font-weight:500;font-size:16.586px;fill:rgb(30,63,80);">d<tspan x="312.021px 320.159px 322.902px 331.04px 335.776px 338.973px 345.377px 348.121px " y="504.907px 504.907px 504.907px 504.907px 504.907px 504.907px 504.907px 504.907px ">olor sit</tspan></text>
                                        <text x="356.012px" y="504.907px" style="font-family:'LucidaGrande', 'Lucida Grande', sans-serif;font-weight:500;font-size:16.586px;fill:rgb(30,63,80);">a<tspan x="363.121px 376.555px 383.745px 387.898px 391.095px 394.292px 400.737px 408.874px 417.117px 423.522px 430.711px 437.156px 441.309px 448.499px 452.652px 460.895px " y="504.907px 504.907px 504.907px 504.907px 504.907px 504.907px 504.907px 504.907px 504.907px 504.907px 504.907px 504.907px 504.907px 504.907px 504.907px 504.907px ">met, consectetur</tspan></text>
                                    </g>
                                    <g transform="matrix(0.98901,-0.147852,0.147852,0.98901,0,0)">
                                        <text x="218.745px" y="541.363px" style="font-family:'LucidaGrande', 'Lucida Grande', sans-serif;font-weight:500;font-size:16.586px;fill:rgb(30,63,80);">a<tspan x="225.921px 234.378px 237.19px 245.646px 248.458px 254.93px 261.443px 264.254px 272.565px " y="541.363px 541.363px 541.363px 541.363px 541.363px 541.363px 541.363px 541.363px 541.363px ">dipiscing</tspan></text>
                                        <text x="282.535px" y="541.363px" style="font-family:'LucidaGrande', 'Lucida Grande', sans-serif;font-weight:500;font-size:16.586px;fill:rgb(30,63,80);">e<tspan x="289.793px 292.605px 295.416px 299.637px " y="541.363px 541.363px 541.363px 541.363px ">lit.</tspan></text>
                                        <text x="307.049px" y="541.363px" style="font-family:'LucidaGrande', 'Lucida Grande', sans-serif;font-weight:500;font-size:16.586px;fill:rgb(30,63,80);">P<tspan x="314.234px 319.038px 326.215px 333.473px 339.945px 347.203px 355.514px " y="541.363px 541.363px 541.363px 541.363px 541.363px 541.363px 541.363px ">raesent</tspan></text>
                                        <text x="365.134px" y="541.363px" style="font-family:'LucidaGrande', 'Lucida Grande', sans-serif;font-weight:500;font-size:16.586px;fill:rgb(30,63,80);">i<tspan x="367.946px 376.257px 380.477px 387.735px 392.539px 400.996px 409.306px " y="541.363px 541.363px 541.363px 541.363px 541.363px 541.363px 541.363px ">nterdum</tspan></text>
                                        <text x="425.326px" y="541.363px" style="font-family:'LucidaGrande', 'Lucida Grande', sans-serif;font-weight:500;font-size:16.586px;fill:rgb(30,63,80);">s<tspan x="431.798px 439.056px " y="541.363px 541.363px ">em</tspan></text>
                                        <text x="455.247px" y="541.363px" style="font-family:'LucidaGrande', 'Lucida Grande', sans-serif;font-weight:500;font-size:16.586px;fill:rgb(30,63,80);">e<tspan x="462.505px " y="541.363px ">u</tspan></text>
                                    </g>
                                    <g transform="matrix(0.98901,-0.147852,0.147852,0.98901,0,0)">
                                        <text x="218.745px" y="577.82px" style="font-family:'LucidaGrande', 'Lucida Grande', sans-serif;font-weight:500;font-size:16.586px;fill:rgb(30,63,80);">e<tspan x="225.968px 230.737px 238.908px 245.346px 248.576px 255.799px 258.576px 265.8px 279.267px 286.49px 294.766px 298.952px 307.228px 320.696px 323.926px 327.157px 333.724px 340.947px 347.385px 351.571px 354.348px 362.77px 371.046px 373.823px 382.099px 395.566px 398.797px 405.364px 413.535px 416.312px 424.588px 428.774px 437.196px 444.338px 448.525px 451.755px 458.193px 465.416px " y="577.82px 577.82px 577.82px 577.82px 577.82px 577.82px 577.82px 577.82px 577.82px 577.82px 577.82px 577.82px 577.82px 577.82px 577.82px 577.82px 577.82px 577.82px 577.82px 577.82px 577.82px 577.82px 577.82px 577.82px 577.82px 577.82px 577.82px 577.82px 577.82px 577.82px 577.82px 577.82px 577.82px 577.82px 577.82px 577.82px 577.82px 577.82px ">ros elementum, vestibulum volutpat sem</tspan></text>
                                    </g>
                                    <g transform="matrix(0.98901,-0.147852,0.147852,0.98901,0,0)">
                                        <text x="222.062px" y="614.276px" style="font-family:'LucidaGrande', 'Lucida Grande', sans-serif;font-weight:500;font-size:16.586px;fill:rgb(30,63,80);">a<tspan x="229.148px 235.571px 241.993px 250.214px 263.625px 270.007px 277.094px 285.314px " y="614.276px 614.276px 614.276px 614.276px 614.276px 614.276px 614.276px 614.276px ">ccumsan.</tspan></text>
                                        <text x="291.094px" y="614.276px" style="font-family:'LucidaGrande', 'Lucida Grande', sans-serif;font-weight:500;font-size:16.586px;fill:rgb(30,63,80);">C<tspan x="300.496px 305.21px 312.296px 318.678px 321.853px 335.265px 342.351px 345.073px 352.24px 358.622px 366.843px 373.929px 382.295px 389.382px 392.557px 400.777px 403.498px 409.88px 412.602px 415.777px 418.498px 426.718px 433.141px 437.271px 445.492px " y="614.276px 614.276px 614.276px 614.276px 614.276px 614.276px 614.276px 614.276px 614.276px 614.276px 614.276px 614.276px 614.276px 614.276px 614.276px 614.276px 614.276px 614.276px 614.276px 614.276px 614.276px 614.276px 614.276px 614.276px 614.276px ">ras malesuada nisl luctus</tspan></text>
                                        <text x="456.624px" y="614.276px" style="font-family:'LucidaGrande', 'Lucida Grande', sans-serif;font-weight:500;font-size:16.586px;fill:rgb(30,63,80);">m<tspan x="470.035px 472.757px " y="614.276px 614.276px ">i.</tspan></text>
                                    </g>
                                </g>
                            </g>
                            <g transform="matrix(0.951449,-0.000549657,0.000578862,1,73.9791,-54.5556)">
                                <text x="220.49px" y="475.548px" style="font-family:'LucidaGrande-Bold', 'Lucida Grande', sans-serif;font-weight:600;font-size:35.379px;fill:rgb(255,90,88);">S<tspan x="227.952px 239.611px 248.109px 257.056px " y="475.548px 475.548px 475.548px 475.548px ">TEPS</tspan></text>
                            </g>
                            <g transform="matrix(1,-0.000578369,0.000578369,1,63.2735,-54.5494)">
                                <text x="300.213px" y="295.927px" style="font-family:'LucidaGrande-Bold', 'Lucida Grande', sans-serif;font-weight:600;font-size:27.087px;fill:rgb(255,90,88);">I<tspan x="300.213px 311.415px 321.996px 331.069px 337.721px 349.585px 349.585px 356.238px 367.44px 376.513px " y="295.927px 295.927px 295.927px 295.927px 295.927px 295.927px 295.927px 295.927px 295.927px 295.927px ">NGREDIENTS</tspan></text>
                            </g>
                        </g>
                    </g>
                </g>
            </g>
        </g>
    </g>
</svg>
