<?xml version="1.0" encoding="UTF-8" standalone="no"?>
<!DOCTYPE svg PUBLIC "-//W3C//DTD SVG 1.1//EN" "http://www.w3.org/Graphics/SVG/1.1/DTD/svg11.dtd">
<svg width="100%" height="100%" viewBox="0 0 423 303" version="1.1" xmlns="http://www.w3.org/2000/svg" xmlns:xlink="http://www.w3.org/1999/xlink" xml:space="preserve" xmlns:serif="http://www.serif.com/" style="fill-rule:evenodd;clip-rule:evenodd;stroke-linejoin:round;stroke-miterlimit:2;">
    <g transform="matrix(1,0,0,1,-38.9998,-107)">
        <g transform="matrix(1,0,0,1,53.2817,259.925)">
            <path d="M0,-2.479C-0.193,-6.201 0.042,-9.889 0.677,-13.472C0.842,-14.335 1.033,-15.187 1.245,-16.032C16.493,12.055 38.777,33.987 61.532,53.428C80.558,69.683 100.083,85.158 120.085,99.656C114.033,97.282 108.015,94.868 102.069,92.38C94.146,89.046 86.348,85.688 78.792,82.081C63.679,74.865 49.337,66.635 36.766,56.279C30.482,51.116 24.65,45.445 19.416,39.249C18.761,38.474 18.092,37.717 17.451,36.933L15.602,34.509L13.754,32.095C13.146,31.285 12.601,30.417 12.021,29.584C9.638,26.199 7.64,22.958 5.927,19.461C2.473,12.524 0.371,4.963 0,-2.479M-5.861,27.647C-3.759,32.078 -1.206,36.285 1.36,40.009C2.007,40.962 2.624,41.953 3.301,42.879L5.358,45.636L7.426,48.399C8.14,49.292 8.88,50.154 9.608,51.035C15.435,58.078 21.883,64.46 28.735,70.199C42.455,81.709 57.712,90.567 73.39,98.188C81.249,102.004 89.212,105.486 97.215,108.902C105.239,112.307 113.369,115.612 121.599,118.798C129.828,121.99 138.165,125.038 146.595,127.961C150.809,129.427 155.05,130.842 159.312,132.236C163.56,133.581 167.821,134.93 172.095,136.284C173.208,136.637 174.324,136.995 175.442,137.356C187.436,144.003 199.898,148.733 212.609,148.708C213.767,148.707 214.92,148.659 216.07,148.59C218.815,149.042 221.581,149.414 224.375,149.662C233.494,150.487 242.951,149.824 252.104,147.018C261.144,144.187 269.434,139.385 276.958,133.81C284.488,128.206 291.271,121.765 297.583,115.095C303.88,108.405 309.727,101.476 315.395,94.666C316.141,93.769 316.877,92.884 317.622,91.99C343.137,72.394 367.863,49.859 387.872,23.33C400.01,7.238 409.26,-13.729 407.504,-35.32C407.087,-40.442 406.273,-45.313 405.125,-49.961C405.607,-52.091 406.03,-54.238 406.383,-56.401C407.102,-60.578 407.486,-64.84 407.619,-69.092C407.779,-73.342 407.522,-77.621 406.981,-81.811C406.479,-85.994 405.455,-90.149 404.222,-93.979C403.562,-95.833 402.906,-97.679 402.253,-99.515C401.5,-101.297 400.69,-103.04 399.912,-104.782C396.596,-111.632 392.476,-117.692 387.911,-122.812C383.369,-127.994 378.282,-132.014 373.208,-135.429C372.568,-135.847 371.93,-136.263 371.294,-136.678C370.663,-137.104 370.024,-137.501 369.371,-137.847C368.075,-138.569 366.788,-139.286 365.509,-139.999C364.221,-140.674 362.915,-141.25 361.633,-141.871C360.99,-142.173 360.349,-142.475 359.711,-142.775C359.063,-143.036 358.418,-143.296 357.775,-143.554C352.655,-145.742 347.56,-147.19 342.632,-148.523C337.681,-149.694 332.875,-150.678 328.212,-151.281C318.894,-152.581 310.209,-152.966 302.247,-152.922C294.282,-152.87 287.035,-152.379 280.543,-151.725C274.051,-151.078 268.314,-150.233 263.363,-149.364C258.41,-148.517 254.245,-147.606 250.892,-146.808C244.19,-145.168 240.742,-143.879 240.818,-143.291C240.898,-142.67 244.498,-142.779 251.275,-143.267C254.667,-143.489 258.851,-143.832 263.793,-144.12C268.734,-144.43 274.431,-144.726 280.835,-144.836C287.238,-144.955 294.351,-144.922 302.097,-144.477C309.839,-144.025 318.224,-143.167 327.079,-141.467C331.514,-140.664 336.035,-139.502 340.657,-138.188C345.235,-136.719 349.952,-135.162 354.573,-132.956C355.156,-132.695 355.741,-132.433 356.328,-132.171C356.899,-131.873 357.473,-131.573 358.049,-131.273C359.194,-130.661 360.37,-130.093 361.512,-129.437C362.64,-128.753 363.776,-128.064 364.919,-127.371C365.499,-127.041 366.056,-126.665 366.602,-126.264L368.263,-125.093C372.659,-121.904 376.976,-118.265 380.693,-113.747C384.443,-109.278 387.734,-104.137 390.362,-98.375C390.969,-96.901 391.613,-95.442 392.213,-93.947C392.723,-92.399 393.237,-90.842 393.752,-89.277C394.666,-86.185 395.372,-83.103 395.697,-79.793C395.956,-77.369 396.105,-74.891 396.084,-72.372C369.039,-118.951 301.609,-134.884 261.28,-140.297C254.212,-141.246 247.201,-142.03 240.284,-142.743C240.652,-142.965 240.837,-143.149 240.818,-143.291C240.757,-143.767 238.515,-143.776 234.267,-143.354C232.047,-143.572 229.831,-143.789 227.64,-143.997C186.733,-147.895 145.461,-149.242 104.599,-143.896C71.226,-139.528 19.45,-133.931 -4.055,-101.154C-16.563,-83.711 -16.581,-60.993 -9.574,-40.584C-8.686,-37.998 -7.738,-35.46 -6.736,-32.967C-7.033,-32.345 -7.338,-31.73 -7.62,-31.092C-9.543,-26.756 -11.151,-21.998 -12.155,-17.015C-13.121,-12.013 -13.516,-6.805 -13.309,-1.63C-12.911,8.753 -10.121,18.828 -5.861,27.647" style="fill:rgb(252,189,118);fill-rule:nonzero;"/>
        </g>
    </g>
</svg>
